<svg xmlns="http://www.w3.org/2000/svg" viewBox="0 0 140 140"><defs><style>.a,.c{fill:#1f2836;}.a,.b{fill-rule:evenodd;}.b,.e{fill:#83c674;}.d{fill:#fff;}.f{fill:none;}</style></defs><title>entertainment-icon</title><path class="a" d="M89,41.14h1a8.25,8.25,0,0,0,1.79,4.28l-.72.72a.91.91,0,0,0,0,1.29.93.93,0,0,0,1.3,0l.71-.71a8.51,8.51,0,0,0,4.31,1.78v1a.93.93,0,0,0,1.86,0v-1a8.51,8.51,0,0,0,4.3-1.78l.71.71a.93.93,0,0,0,1.3,0,.91.91,0,0,0,0-1.29l-.71-.72a8.32,8.32,0,0,0,1.78-4.28h1a.93.93,0,0,0,0-1.86h-1A8.32,8.32,0,0,0,104.91,35l.71-.72A.93.93,0,0,0,104.3,33l-.71.7a8.41,8.41,0,0,0-4.3-1.77v-1a.93.93,0,0,0-1.86,0v1a8.41,8.41,0,0,0-4.31,1.77l-.71-.7a.93.93,0,0,0-1.32,1.3l.72.72A8.25,8.25,0,0,0,90,39.28H89a.93.93,0,0,0,0,1.86Z"/><path class="b" d="M104.81,39.28a6.45,6.45,0,0,0-1.23-3A6.31,6.31,0,0,0,102.26,35a6.49,6.49,0,0,0-3-1.23,6.28,6.28,0,0,0-1.87,0,6.57,6.57,0,0,0-4.29,2.54,6.56,6.56,0,0,0-1.23,3,7,7,0,0,0-.06.93,7.14,7.14,0,0,0,.06.93,6.56,6.56,0,0,0,1.23,3,6.83,6.83,0,0,0,1.32,1.31,6.49,6.49,0,0,0,3,1.23,6.28,6.28,0,0,0,1.87,0,6.49,6.49,0,0,0,3-1.23,6.31,6.31,0,0,0,1.32-1.31,6.45,6.45,0,0,0,1.23-3,5.74,5.74,0,0,0,.07-.93A5.65,5.65,0,0,0,104.81,39.28ZM102,41.14a4,4,0,0,1-.4,1,3.61,3.61,0,0,1-1.18,1.22l-.13.09a4,4,0,0,1-1,.4,3.94,3.94,0,0,1-1.87,0,4,4,0,0,1-1-.4,3.61,3.61,0,0,1-1.22-1.18.51.51,0,0,1-.09-.13,3.62,3.62,0,0,1-.4-1,3.66,3.66,0,0,1,0-1.86,4,4,0,0,1,.4-1,0,0,0,0,0,0,0l.93.93.45.46,0,0a1.3,1.3,0,0,0,.55.32,1.57,1.57,0,0,0,.27,0,.8.8,0,0,0,.89-.86,1.6,1.6,0,0,0,0-.29,1.47,1.47,0,0,0-.17-.36,1.28,1.28,0,0,0-.19-.23l-.48-.47-.9-.91,0,0a3.38,3.38,0,0,1,.93-.38,3.7,3.7,0,0,1,1.87,0,3.8,3.8,0,0,1,1,.39,3.74,3.74,0,0,1,1.23,1.18l.08.13a3.32,3.32,0,0,1,.4,1A3.66,3.66,0,0,1,102,41.14Z"/><path class="c" d="M35.14,37.5V33.83h2.33l0,3.67,0,0H35.12Z"/><path class="c" d="M35.28,37.82l-.48-.48H35l0-3.65H37.6l0,3.65h.21l-.48.47V37.6h-2Zm0-3.86v3.38h2l0-3.38Z"/><path class="c" d="M35.14,39.8H31.53V37.5h3.61l0,0v2.35Z"/><path class="c" d="M35,40.15v-.22H31.4V37.36H35v-.21l.48.48h-.21v2h.21Zm-3.32-.49H35v-2H31.66Z"/><path class="c" d="M37.44,37.5h3.62v2.3H37.44l0,0V37.47Z"/><path class="c" d="M37.6,40.14l-.48-.48h.22v-2h-.22l.48-.48v.21h3.59v2.57H37.6Zm0-.48h3.33v-2H37.6Z"/><path class="c" d="M37.44,39.8v3.61h-2.3V39.8l0,0h2.35Z"/><path class="c" d="M37.58,43.55H35V40H34.8l.48-.49v.22h2v-.21l.49.48h-.22Zm-2.3-.27h2V40h-2Z"/><path class="d" d="M37.47,39.82H35.12V37.47h2.35Z"/><path class="c" d="M37.47,40H35V37.34H37.6V40Zm-2.22-.27h2.09V37.6H35.25Z"/><path class="c" d="M76.11,110H51.94a.4.4,0,0,1,0-.8H76.11a.4.4,0,0,1,0,.8Z"/><path class="c" d="M84.86,110h-5a.4.4,0,1,1,0-.8h5a.4.4,0,0,1,0,.8Z"/><path class="c" d="M86.16,63.46a6.61,6.61,0,0,0-6.41,5.1,4.36,4.36,0,0,0-3.52-1.8,4.41,4.41,0,0,0-4.39,4.39,4.34,4.34,0,0,0,.6,2.18H91.86a6.57,6.57,0,0,0-5.7-9.87Z"/><path class="c" d="M70.75,74.43a1.1,1.1,0,0,0-1.1,1.1V95.3a1.09,1.09,0,0,0,1.1,1.09h22a1.09,1.09,0,0,0,1.1-1.09V75.53a1.1,1.1,0,0,0-1.1-1.1Z"/><path class="c" d="M99.3,77.72a3.31,3.31,0,0,0-3.09,2.2h-1.3V92h1.3a3.31,3.31,0,0,0,3.09,2.2h2.2a1.1,1.1,0,0,0,1.1-1.1V78.82a1.11,1.11,0,0,0-1.1-1.1Z"/><path class="d" d="M73.9,60.3a3.71,3.71,0,0,0,.13-1,3.25,3.25,0,0,0-1.54-2.86v-.1a3,3,0,0,0-2.66-3.16,2.3,2.3,0,0,0-.79.14,2.65,2.65,0,0,0-2.37-1.74,2.52,2.52,0,0,0-.56.07,2.87,2.87,0,0,0-2.64-2.75,2.17,2.17,0,0,0-.76.13,2.6,2.6,0,0,0-2.3-1.6,2.49,2.49,0,0,0-1.82.85,2.57,2.57,0,0,0-2.22-1.43,2.51,2.51,0,0,0-2,1.13,2.34,2.34,0,0,0-1.49-.55A2.9,2.9,0,0,0,50.2,50.4a2.29,2.29,0,0,0-1.2-.34,2.94,2.94,0,0,0-2.66,3.16,3.38,3.38,0,0,0,.07.72,2.35,2.35,0,0,0-.79-.14A3,3,0,0,0,43,57a3.58,3.58,0,0,0,0,.58h-.06a3.21,3.21,0,0,0,0,6.33,2.39,2.39,0,0,0,1.57-.61,15,15,0,0,0,7.15,1.49c3.56,0,6.61-.83,7.84-2a19.58,19.58,0,0,0,4.72.54,19.32,19.32,0,0,0,5.12-.65,2.91,2.91,0,0,0,2.65,3,3,3,0,0,0,2.66-3.16A3.47,3.47,0,0,0,73.9,60.3Z"/><path class="c" d="M72,66.73a3.77,3.77,0,0,1-3.5-2.79,22.33,22.33,0,0,1-8.72,0c-1.65,1.19-4.67,1.91-8.11,1.91a17.31,17.31,0,0,1-7.08-1.31,3.37,3.37,0,0,1-1.64.43,4,4,0,0,1-3.72-4.23,4.18,4.18,0,0,1,2.68-4.05,4,4,0,0,1,3.4-3.9A3.93,3.93,0,0,1,49,49l.41,0a3.77,3.77,0,0,1,3.44-2.61,3.34,3.34,0,0,1,1.29.26,3.39,3.39,0,0,1,4.64.16,3.41,3.41,0,0,1,1.63-.42,3.57,3.57,0,0,1,2.82,1.47h.24a3.78,3.78,0,0,1,3.47,2.7,3.59,3.59,0,0,1,2.65,1.6h.24a3.93,3.93,0,0,1,3.7,3.74A4.56,4.56,0,0,1,75,60.07a4.64,4.64,0,0,1,.68,2.44A4,4,0,0,1,72,66.73Zm-2.65-5.16a1,1,0,0,1,.62.21,1.09,1.09,0,0,1,.44.82,1.89,1.89,0,0,0,1.59,2,1.93,1.93,0,0,0,1.6-2.1A2.41,2.41,0,0,0,73.08,61a1.05,1.05,0,0,1-.2-.95,2.61,2.61,0,0,0,.09-.69,2.17,2.17,0,0,0-1-1.93,1.07,1.07,0,0,1-.54-1v-.07a1.93,1.93,0,0,0-1.6-2.1,1.2,1.2,0,0,0-.42.08,1.06,1.06,0,0,1-1.34-.58,1.5,1.5,0,0,0-1.7-1.06,1.07,1.07,0,0,1-.87-.15,1.09,1.09,0,0,1-.45-.76c-.13-1.21-1-2.07-2-1.74a1.08,1.08,0,0,1-1.31-.54,1.59,1.59,0,0,0-1.35-1,1.43,1.43,0,0,0-1,.5,1,1,0,0,1-1.71-.19,1.53,1.53,0,0,0-1.3-.88,1.48,1.48,0,0,0-1.17.67,1.06,1.06,0,0,1-.72.44,1,1,0,0,1-.81-.23,1.32,1.32,0,0,0-.82-.31,1.86,1.86,0,0,0-1.59,1.94,1.07,1.07,0,0,1-1.61.84,1.22,1.22,0,0,0-.65-.19,1.93,1.93,0,0,0-1.6,2.1,2.35,2.35,0,0,0,.05.52A1.06,1.06,0,0,1,46,54.94a1.25,1.25,0,0,0-.42-.08A1.93,1.93,0,0,0,44,57a3.13,3.13,0,0,0,0,.42,1,1,0,0,1-.25.86,1.06,1.06,0,0,1-.83.37h-.06a2,2,0,0,0-1.57,2.1c0,1.14.73,2.11,1.6,2.11a1.32,1.32,0,0,0,.87-.35,1,1,0,0,1,1.24-.11,14.08,14.08,0,0,0,6.61,1.34c3.65,0,6.24-.89,7.11-1.71a1.06,1.06,0,0,1,1-.26,18.59,18.59,0,0,0,4.46.51A17.74,17.74,0,0,0,69,61.62,1,1,0,0,1,69.34,61.57Z"/><polygon class="c" points="40.24 61.63 45.17 104.62 47.09 104.62 42.94 61.63 40.24 61.63"/><polygon class="e" points="42.94 61.63 47.09 104.62 49 104.62 45.64 61.63 42.94 61.63"/><polygon class="c" points="45.62 61.63 48.98 104.62 50.9 104.62 48.32 61.63 45.62 61.63"/><polygon class="e" points="48.32 61.63 50.9 104.62 52.81 104.62 51.02 61.63 48.32 61.63"/><polygon class="c" points="50.99 61.63 52.79 104.62 54.7 104.62 53.7 61.63 50.99 61.63"/><polygon class="e" points="53.7 61.63 54.7 104.62 56.62 104.62 56.4 61.63 53.7 61.63"/><polygon class="c" points="56.37 61.63 56.6 104.62 58.51 104.62 59.07 61.63 56.37 61.63"/><polygon class="e" points="59.07 61.63 58.51 104.62 60.42 104.62 61.77 61.63 59.07 61.63"/><polygon class="c" points="61.75 61.63 60.41 104.62 62.32 104.62 64.45 61.63 61.75 61.63"/><polygon class="e" points="64.45 61.63 62.32 104.62 64.23 104.62 67.15 61.63 64.45 61.63"/><polygon class="c" points="67.13 61.63 64.22 104.62 66.13 104.62 69.83 61.63 67.13 61.63"/><polygon class="e" points="69.83 61.63 66.13 104.62 68.04 104.62 72.53 61.63 69.83 61.63"/><polygon class="c" points="72.07 61.63 67.96 104.62 69.87 104.62 74.77 61.63 72.07 61.63"/><rect class="f" width="140" height="140"/></svg>