<svg xmlns="http://www.w3.org/2000/svg" viewBox="0 0 140 140"><defs><style>.a,.d{fill:#83c674;}.b,.c{fill:#1f2836;}.c,.d{fill-rule:evenodd;}.e{fill:none;}</style></defs><title>family-icon</title><path class="a" d="M28.73,107.09s3.86-24.59,9.93-12.45,4.23,13.58,12.43,6.07,11.87-13,19.59-3.86,10.74,16.9,16.69,10.24,9.54-3.34,11.47-1.13S28.73,107.09,28.73,107.09Z"/><circle class="b" cx="78.29" cy="64.35" r="3.91"/><circle class="b" cx="95.5" cy="83.12" r="3.13"/><circle class="b" cx="61.08" cy="64.35" r="3.91"/><circle class="b" cx="43.87" cy="83.12" r="3.13"/><path class="b" d="M103.94,96.58l-2.73-6.5a7.58,7.58,0,0,0-4.07-2.81A5.47,5.47,0,0,0,95.5,87a6.68,6.68,0,0,0-3,.71l-4.78-3.37L84.86,72.64a1.65,1.65,0,0,0-.55-.86,9.4,9.4,0,0,0-3.21-1.56,11.26,11.26,0,0,0-2.81-.39,10.3,10.3,0,0,0-2.74.39,9.49,9.49,0,0,0-3.21,1.56,1.47,1.47,0,0,0-.54.86l-2.12,8.45-2-8.45a1.65,1.65,0,0,0-.55-.86,9.35,9.35,0,0,0-3.2-1.56,11.41,11.41,0,0,0-2.82-.39,10.3,10.3,0,0,0-2.74.39,9.44,9.44,0,0,0-3.2,1.56,1.49,1.49,0,0,0-.55.86L51.77,84.37,47,87.74A7.27,7.27,0,0,0,43.87,87a5.47,5.47,0,0,0-1.64.24,6.87,6.87,0,0,0-4.07,2.81l-2.73,6.5a1.66,1.66,0,0,0,.47,2,2,2,0,0,0,.93.24,1.55,1.55,0,0,0,1.41-.94L40,93.76v13.61h3.13V98h1.57v9.39h3.12V90.94h.08L54,86.64a1.58,1.58,0,0,0,.63-.94l2.5-10.4v32.07H60.3v-18h1.56v18H65V75.3L68.2,88.21a1.53,1.53,0,0,0,3,0L74.38,75.3v6.57L71.64,93.29h2.74v14.08h3.13V93.29h1.56v14.08H82.2V93.29h2.74L82.2,81.87V75.3l2.58,10.4a1.53,1.53,0,0,0,.63.94L91.66,91v4.85L90,100.33h1.57v7h3.12v-7h1.57v7h3.13v-7H101l-1.49-4.15V93.76l1.73,4.07a1.51,1.51,0,0,0,1.4.94,1.47,1.47,0,0,0,.94-.32A1.64,1.64,0,0,0,103.94,96.58Z"/><path class="c" d="M91.3,41.59h1a8.61,8.61,0,0,0,1.86,4.46l-.75.75a1,1,0,0,0,0,1.34,1,1,0,0,0,1.36,0l.74-.74a8.72,8.72,0,0,0,4.47,1.85v1a1,1,0,0,0,2,0v-1a8.79,8.79,0,0,0,4.47-1.85l.74.74a1,1,0,0,0,1.35,0,1,1,0,0,0,0-1.34l-.75-.75a8.61,8.61,0,0,0,1.86-4.46h1a1,1,0,0,0,0-1.93h-1a8.65,8.65,0,0,0-1.86-4.46l.75-.74a1,1,0,0,0-1.38-1.36l-.74.73A8.69,8.69,0,0,0,102,32v-1a1,1,0,0,0-2,0v1a8.62,8.62,0,0,0-4.47,1.84l-.74-.73a1,1,0,0,0-1.38,1.36l.75.74a8.65,8.65,0,0,0-1.86,4.46h-1a1,1,0,0,0,0,1.93Z"/><path class="d" d="M107.74,39.66a6.71,6.71,0,0,0-1.28-3.08A6.77,6.77,0,0,0,102,33.93a6.76,6.76,0,0,0-1.94,0,6.78,6.78,0,0,0-4.46,2.65,6.6,6.6,0,0,0-1.28,3.08,6.24,6.24,0,0,0-.07,1,6,6,0,0,0,.07,1,6.64,6.64,0,0,0,1.28,3.09A6.79,6.79,0,0,0,97,46a6.6,6.6,0,0,0,3.09,1.28,6.28,6.28,0,0,0,1,.07,7.73,7.73,0,0,0,1-.06,6.77,6.77,0,0,0,4.47-2.65,6.75,6.75,0,0,0,1.28-3.09,6,6,0,0,0,.07-1A6.24,6.24,0,0,0,107.74,39.66Zm-3,1.93a3.66,3.66,0,0,1-.42,1,3.75,3.75,0,0,1-1.23,1.28L103,44a4.13,4.13,0,0,1-1,.41,3.86,3.86,0,0,1-1.94,0,4.13,4.13,0,0,1-1-.41,3.82,3.82,0,0,1-1.27-1.23.71.71,0,0,1-.1-.14,4.34,4.34,0,0,1-.42-1,3.82,3.82,0,0,1,0-1.93,4.06,4.06,0,0,1,.41-1l0,0,1,1,.47.48,0,0a1.45,1.45,0,0,0,.58.34,1.51,1.51,0,0,0,.28.05.9.9,0,0,0,.68-.24.94.94,0,0,0,.25-.66,1.62,1.62,0,0,0-.23-.68,1.43,1.43,0,0,0-.2-.23l-.5-.5-.94-.94,0,0a3.38,3.38,0,0,1,1-.4,3.75,3.75,0,0,1,1.94,0,4,4,0,0,1,1,.41,3.73,3.73,0,0,1,1.28,1.22.6.6,0,0,1,.09.15,3.73,3.73,0,0,1,.42,1A3.94,3.94,0,0,1,104.78,41.59Z"/><path class="b" d="M70.68,110H28.73a.42.42,0,1,1,0-.83h42a.42.42,0,1,1,0,.83Z"/><path class="b" d="M75.65,110h-2.2a.42.42,0,1,1,0-.83h2.2a.42.42,0,1,1,0,.83Z"/><rect class="e" width="140" height="140"/></svg>