<svg xmlns="http://www.w3.org/2000/svg" viewBox="0 0 140 140"><defs><style>.a{fill:#fff;}.b{fill:#1f2836;}.c{fill:#83c674;}.d{fill:none;}</style></defs><title>business-tool-icon</title><polygon class="a" points="53.17 59.58 54.12 47.2 68.4 46.25 107.44 46.25 109.34 55.77 108.39 74.81 105.53 74.81 105.53 91 102.68 92.91 53.17 92.91 53.17 59.58"/><path class="b" d="M105.87,44.84H95.73A10.14,10.14,0,0,0,85.6,36.15H76.91a10.14,10.14,0,0,0-10,8.69H56.64a4.34,4.34,0,0,0-4.34,4.34V75.24a1.44,1.44,0,0,0,1.44,1.45h1.45v13a4.35,4.35,0,0,0,4.35,4.35H103a4.34,4.34,0,0,0,4.34-4.35v-13h1.45a1.45,1.45,0,0,0,1.45-1.45V49.18A4.35,4.35,0,0,0,105.87,44.84Zm-29-5.79H85.6a7.25,7.25,0,0,1,7.24,5.79h-23A7.23,7.23,0,0,1,76.91,39.05Zm27.51,50.67A1.45,1.45,0,0,1,103,91.17H59.54a1.45,1.45,0,0,1-1.45-1.45v-13H75.46V81a1.44,1.44,0,0,0,1.45,1.44H85.6A1.43,1.43,0,0,0,87,81V76.69h17.38ZM78.36,79.59V70.9h5.79v8.69Zm29-5.79H87V69.45A1.43,1.43,0,0,0,85.6,68H76.91a1.44,1.44,0,0,0-1.45,1.44V73.8H55.19V49.18a1.44,1.44,0,0,1,1.45-1.44h49.23a1.43,1.43,0,0,1,1.44,1.44Z"/><circle class="c" cx="46.52" cy="87.12" r="15.74"/><path class="a" d="M46.52,103.85A16.74,16.74,0,1,1,63.25,87.12,16.76,16.76,0,0,1,46.52,103.85Zm0-31.48A14.75,14.75,0,1,0,61.27,87.12,14.76,14.76,0,0,0,46.52,72.37Z"/><path class="b" d="M55.9,80.76l0,.06a.3.3,0,0,1,0,.1S56,81,56,81s.05.15.07.23a4.36,4.36,0,0,1,.14,1.25A4.24,4.24,0,0,1,55.89,84a4.58,4.58,0,0,1-.6,1,4.31,4.31,0,0,1-1.65,1.25,4.17,4.17,0,0,1-1.25.31,4,4,0,0,1-1.24-.07,4.6,4.6,0,0,1-.5-.13h0L45.2,91.1s0,.05,0,.08,0,.34.05.51a4.12,4.12,0,0,1-.11,1.16,4,4,0,0,1-.37,1A4.31,4.31,0,0,1,43,95.64,4.13,4.13,0,0,1,42,96a4.18,4.18,0,0,1-1.41.08,4.35,4.35,0,0,1-1.46-.45,4.28,4.28,0,0,1-2.05-2.39,4.15,4.15,0,0,1-.23-1.4,4.38,4.38,0,0,1,.25-1.39,4.06,4.06,0,0,1,.5-1,4.26,4.26,0,0,1,1.94-1.54,4.4,4.4,0,0,1,1.07-.26,4.39,4.39,0,0,1,1.81.19h0l5.45-4.74v-.08a4.43,4.43,0,0,1-.06-.51,4.26,4.26,0,0,1,.13-1.23A4.06,4.06,0,0,1,48.46,80a4.23,4.23,0,0,1,4.12-1.86,4.56,4.56,0,0,1,1,.24l.4.18,0,0,.09.06a.41.41,0,0,1,.1.09.59.59,0,0,1,.1.57.5.5,0,0,1-.11.17.12.12,0,0,1,0,0l-2.35,2,.13.85.83.24,2.35-2,0,0,.06,0,.13,0a.55.55,0,0,1,.45.08.47.47,0,0,1,.1.1ZM40.75,89.59l-1.87,1.62.38,2.23,2.15.67,1.87-1.62-.38-2.23Z"/><rect class="d" width="140" height="140"/><path class="b" d="M35.14,37.5V33.83h2.33l0,3.67,0,0H35.12Z"/><path class="b" d="M35.28,37.82l-.48-.48H35l0-3.65H37.6l0,3.65h.21l-.48.47V37.6h-2Zm0-3.86v3.38h2l0-3.38Z"/><path class="b" d="M35.14,39.8H31.53V37.5h3.61l0,0v2.35Z"/><path class="b" d="M35,40.15v-.22H31.4V37.36H35v-.21l.48.48h-.21v2h.21Zm-3.32-.49H35v-2H31.66Z"/><path class="b" d="M37.44,37.5h3.62v2.3H37.44l0,0V37.47Z"/><path class="b" d="M37.6,40.14l-.48-.48h.22v-2h-.22l.48-.48v.21h3.59v2.57H37.6Zm0-.48h3.33v-2H37.6Z"/><path class="b" d="M37.44,39.8v3.61h-2.3V39.8l0,0h2.35Z"/><path class="b" d="M37.58,43.55H35V40H34.8l.48-.49v.22h2v-.21l.49.48h-.22Zm-2.3-.27h2V40h-2Z"/><path class="a" d="M37.47,39.82H35.12V37.47h2.35Z"/><path class="b" d="M37.47,40H35V37.34H37.6V40Zm-2.22-.27h2.09V37.6H35.25Z"/><path class="b" d="M77.7,110H53.54a.4.4,0,0,1,0-.8H77.7a.4.4,0,0,1,0,.8Z"/><path class="b" d="M86.46,110h-5a.4.4,0,1,1,0-.8h5a.4.4,0,0,1,0,.8Z"/></svg>