<svg xmlns="http://www.w3.org/2000/svg" viewBox="0 0 140 140"><defs><style>.a{fill:#fff;}.b,.d{fill:#83c674;}.b,.c{fill-rule:evenodd;}.c,.e{fill:#1f2836;}.f{fill:none;}</style></defs><title>finance-icon</title><circle class="a" cx="49" cy="59" r="16"/><polygon class="b" points="30.7 82.16 30.7 82.28 30.7 84.26 33.09 84.26 33.09 86.47 36.88 86.47 36.88 84.26 39.16 84.26 39.16 82.28 39.16 82.16 30.7 82.16"/><polygon class="b" points="57.37 82.16 57.37 82.28 57.37 84.26 59.76 84.26 59.76 86.47 63.55 86.47 63.55 84.26 65.83 84.26 65.83 82.28 65.83 82.16 57.37 82.16"/><path class="b" d="M55.59,58.42a7.41,7.41,0,0,0-2.89-4.85,7.54,7.54,0,0,0-3.38-1.4,8,8,0,0,0-2.11,0,7.54,7.54,0,0,0-3.38,1.4,7,7,0,0,0-1.49,1.49,7.25,7.25,0,0,0-1.4,3.36,7.34,7.34,0,0,0-.08,1.06,7.42,7.42,0,0,0,.08,1.05,7.44,7.44,0,0,0,7.33,6.32,9.26,9.26,0,0,0,1-.07,7.43,7.43,0,0,0,3.38-1.4,7.41,7.41,0,0,0,2.89-4.85,7.42,7.42,0,0,0,.08-1.05A7.34,7.34,0,0,0,55.59,58.42Zm-3.23,2.11a4.26,4.26,0,0,1-.45,1.08A4.19,4.19,0,0,1,50.56,63l-.15.09a4.15,4.15,0,0,1-1.09.46,4.23,4.23,0,0,1-3.2-.45,4.36,4.36,0,0,1-1.4-1.34.86.86,0,0,1-.1-.16,4.19,4.19,0,0,1-.45-3.19,4.48,4.48,0,0,1,.45-1.09l0,0,1.05,1.05.52.52,0,0a1.49,1.49,0,0,0,.63.36,1.7,1.7,0,0,0,.31.06,1,1,0,0,0,.74-.27.93.93,0,0,0,.26-.71,1.28,1.28,0,0,0-.06-.33,1.38,1.38,0,0,0-.19-.41,2.39,2.39,0,0,0-.21-.26l-.54-.54-1-1,0,0a4.1,4.1,0,0,1,1.07-.44,4.31,4.31,0,0,1,2.11,0,4.73,4.73,0,0,1,1.09.45,4.16,4.16,0,0,1,1.4,1.34,1.3,1.3,0,0,1,.1.15,4.65,4.65,0,0,1,.45,1.09A4.31,4.31,0,0,1,52.36,60.53Z"/><path class="c" d="M68.29,36H28.24a3.29,3.29,0,0,0-3.3,3.29V79.64a3.29,3.29,0,0,0,3.3,3.29H68.29a3.29,3.29,0,0,0,3.29-3.29V39.31A3.29,3.29,0,0,0,68.29,36ZM58.87,60.53H57.72a9.32,9.32,0,0,1-2,4.86l.81.81A1.06,1.06,0,0,1,55,67.69l-.81-.8a9.49,9.49,0,0,1-4.88,2V70a1.06,1.06,0,0,1-2.11,0V68.9a9.49,9.49,0,0,1-4.89-2l-.8.8a1.05,1.05,0,0,1-1.48,0,1,1,0,0,1,0-1.47l.81-.81a9.41,9.41,0,0,1-2-4.86H37.66a1.06,1.06,0,0,1,0-2.11H38.8a9.45,9.45,0,0,1,2-4.86L40,52.75a1,1,0,0,1,0-1.47,1.05,1.05,0,0,1,1.48,0l.8.81a9.49,9.49,0,0,1,4.89-2V48.91a1.06,1.06,0,0,1,2.11,0v1.15a9.49,9.49,0,0,1,4.88,2l.81-.81a1.06,1.06,0,0,1,1.5,1.49l-.81.81a9.35,9.35,0,0,1,2,4.86h1.15a1.06,1.06,0,0,1,0,2.11Z"/><rect class="d" x="63.77" y="59.4" width="50.84" height="31.95" rx="3" ry="3"/><path class="e" d="M111,91.81H67.38a4.08,4.08,0,0,1-4.07-4.07V63A4.07,4.07,0,0,1,67.38,59H111A4.07,4.07,0,0,1,115.06,63V87.74A4.08,4.08,0,0,1,111,91.81Zm-43.61-32A3.17,3.17,0,0,0,64.22,63V87.74a3.16,3.16,0,0,0,3.16,3.16H111a3.15,3.15,0,0,0,3.16-3.16V63A3.16,3.16,0,0,0,111,59.85Z"/><rect class="e" x="63.48" y="73.63" width="51.12" height="10.51"/><path class="e" d="M108.26,67.38H87.9a.45.45,0,0,1,0-.9h20.36a.45.45,0,0,1,0,.9Z"/><circle class="d" cx="61.22" cy="91.96" r="17.77"/><circle class="a" cx="61.22" cy="92.16" r="11.21"/><path class="e" d="M78.24,86a17.95,17.95,0,0,0-10.9-10.9h0a17.73,17.73,0,0,0-6-1,18,18,0,0,0-6,1h0A18,18,0,0,0,44.35,86h0a17.73,17.73,0,0,0-1.05,6,18,18,0,0,0,1,6h0A18,18,0,0,0,55.24,109h0a18.06,18.06,0,0,0,12.08,0h0a18,18,0,0,0,10.91-10.9h0a18.22,18.22,0,0,0,1-6,17.7,17.7,0,0,0-1-6Zm-13.41,16h0a10.36,10.36,0,0,1-3.53.61,10.52,10.52,0,0,1-3.53-.61h0a10.6,10.6,0,0,1-6.38-6.38h0a10.52,10.52,0,0,1,0-7.06h0a10.6,10.6,0,0,1,6.38-6.38h0a10.65,10.65,0,0,1,7,0h0a10.6,10.6,0,0,1,6.38,6.38h0a10.52,10.52,0,0,1,0,7.06h0A10.65,10.65,0,0,1,64.83,101.92ZM50.11,95.39l-4.73,1.68-.12,0a16.82,16.82,0,0,1,0-10.19l.12,0,4.73,1.68A11.94,11.94,0,0,0,49.62,92,11.61,11.61,0,0,0,50.11,95.39Zm27.11,1.68-4.73-1.68a11.87,11.87,0,0,0,0-6.75L77.22,87l.12,0a16.82,16.82,0,0,1,0,10.19ZM77,85.82h0l-4.86,1.73a11.82,11.82,0,0,0-6.33-6.33l1.72-4.82v0A16.94,16.94,0,0,1,77,85.82ZM61.3,75.18a16.81,16.81,0,0,1,5.09.79l-1.72,4.86a11.87,11.87,0,0,0-6.75,0L56.2,76A16.83,16.83,0,0,1,61.3,75.18ZM49.4,80.12a17.1,17.1,0,0,1,5.7-3.76v0l1.72,4.82a11.82,11.82,0,0,0-6.33,6.33l-4.85-1.73h0A17.06,17.06,0,0,1,49.4,80.12ZM45.64,98.21h0l4.86-1.73a11.82,11.82,0,0,0,6.33,6.33l-1.72,4.82v0a16.94,16.94,0,0,1-9.46-9.45ZM61.3,108.85a16.83,16.83,0,0,1-5.1-.79l1.72-4.86a11.87,11.87,0,0,0,6.75,0l1.72,4.86A16.81,16.81,0,0,1,61.3,108.85Zm11.89-4.94a17,17,0,0,1-5.7,3.76v0l-1.72-4.83a11.82,11.82,0,0,0,6.33-6.33l4.85,1.73h0A17.1,17.1,0,0,1,73.19,103.91Z"/><polygon class="c" points="54.38 90.03 53.97 91.1 63.86 91.1 64.27 90.03 54.38 90.03"/><polygon class="c" points="54.9 92.16 54.49 93.24 63.31 93.24 63.72 92.16 54.9 92.16"/><path class="c" d="M57,91.6a2,2,0,0,1,0-.25H55.76a2,2,0,0,0,0,.25c0,.1,0,.21,0,.32H57C57,91.81,57,91.7,57,91.6Z"/><path class="c" d="M56,89.78h1.3a4.92,4.92,0,0,1,8.24-1.47L65.93,87A6.14,6.14,0,0,0,56,89.78Z"/><path class="c" d="M57.35,93.48H56a6.15,6.15,0,0,0,9.28,3.23V95.13a4.92,4.92,0,0,1-8-1.65Z"/><circle class="d" cx="85.98" cy="37.04" r="6.98"/><circle class="a" cx="85.98" cy="37.12" r="4.4"/><path class="e" d="M92.66,34.69A7.09,7.09,0,0,0,91,32.07a7,7,0,0,0-2.62-1.66h0a7.08,7.08,0,0,0-4.75,0h0a7.09,7.09,0,0,0-4.28,4.28h0a7.08,7.08,0,0,0,0,4.75h0a7.09,7.09,0,0,0,4.28,4.28h0a7.07,7.07,0,0,0,2.37.41,7,7,0,0,0,2.37-.41h0A7.13,7.13,0,0,0,91,42.06a7.22,7.22,0,0,0,1.66-2.62h0a7.08,7.08,0,0,0,.4-2.38,6.82,6.82,0,0,0-.4-2.37ZM87.4,41h0a4.15,4.15,0,0,1-1.39.24A4.11,4.11,0,0,1,84.62,41h0a4.13,4.13,0,0,1-2.5-2.5h0a4.11,4.11,0,0,1-.24-1.39,4,4,0,0,1,.24-1.38h0a4.15,4.15,0,0,1,2.5-2.5h0A4.11,4.11,0,0,1,86,32.93a4,4,0,0,1,1.38.24h0a4.18,4.18,0,0,1,2.5,2.5h0a4.11,4.11,0,0,1,.24,1.39,4,4,0,0,1-.24,1.38h0A4.15,4.15,0,0,1,87.4,41Zm-5.78-2.56-1.86.66-.05,0a6.64,6.64,0,0,1,0-4l.05,0,1.86.66a4.49,4.49,0,0,0,0,2.65Zm10.64.66-1.86-.66a4.72,4.72,0,0,0,0-2.65l1.86-.66,0,0a6.64,6.64,0,0,1,0,4Zm-.11-4.42h0l-1.9.68a4.65,4.65,0,0,0-2.49-2.48l.68-1.9h0a6.68,6.68,0,0,1,2.24,1.48A6.52,6.52,0,0,1,92.15,34.63ZM86,30.46a6.48,6.48,0,0,1,2,.31l-.68,1.9a4.72,4.72,0,0,0-2.65,0L84,30.77A6.39,6.39,0,0,1,86,30.46Zm-4.67,1.93a6.61,6.61,0,0,1,2.24-1.47h0l.67,1.89a4.65,4.65,0,0,0-2.48,2.49l-1.9-.68h0A6.83,6.83,0,0,1,81.34,32.39ZM79.86,39.5h0l1.91-.68a4.63,4.63,0,0,0,2.48,2.48l-.67,1.9h0a6.49,6.49,0,0,1-2.24-1.48A6.69,6.69,0,0,1,79.86,39.5ZM86,43.67a6.39,6.39,0,0,1-2-.31l.67-1.9a4.72,4.72,0,0,0,2.65,0l.68,1.9A6.48,6.48,0,0,1,86,43.67Zm4.67-1.93a6.81,6.81,0,0,1-2.24,1.47h0l-.68-1.9a4.65,4.65,0,0,0,2.49-2.48l1.9.68h0A6.65,6.65,0,0,1,90.68,41.74Z"/><polygon class="c" points="83.29 36.28 83.13 36.71 87.02 36.71 87.18 36.28 83.29 36.28"/><polygon class="c" points="83.5 37.12 83.33 37.54 86.8 37.54 86.96 37.12 83.5 37.12"/><path class="c" d="M84.31,36.9s0-.07,0-.1h-.49V37h.49C84.32,37,84.31,36.94,84.31,36.9Z"/><path class="c" d="M83.94,36.19h.51a1.93,1.93,0,0,1,3.23-.58l.15-.53a2.4,2.4,0,0,0-3.89,1.11Z"/><path class="c" d="M84.46,37.64H84a2.41,2.41,0,0,0,3.64,1.27v-.62a1.94,1.94,0,0,1-3.13-.65Z"/><circle class="d" cx="104.69" cy="46.25" r="5.66"/><circle class="a" cx="104.69" cy="46.32" r="3.57"/><path class="e" d="M110.12,44.34a5.78,5.78,0,0,0-1.35-2.12,5.69,5.69,0,0,0-2.13-1.35h0a5.7,5.7,0,0,0-1.92-.33,5.76,5.76,0,0,0-1.93.33h0a5.67,5.67,0,0,0-3.47,3.47h0A5.77,5.77,0,0,0,99,46.27a6,6,0,0,0,.33,1.93h0a5.86,5.86,0,0,0,1.35,2.12,5.69,5.69,0,0,0,2.13,1.35h0a5.7,5.7,0,0,0,1.92.33,5.76,5.76,0,0,0,1.93-.33h0a5.77,5.77,0,0,0,2.13-1.35,5.84,5.84,0,0,0,1.34-2.12h0a5.89,5.89,0,0,0,0-3.86Zm-4.28,5.09h0a3.3,3.3,0,0,1-1.12.19,3.57,3.57,0,0,1-1.13-.19h0a3.39,3.39,0,0,1-2-2h0a3.43,3.43,0,0,1,0-2.25h0a3.35,3.35,0,0,1,2-2h0a3.26,3.26,0,0,1,2.25,0h0a3.39,3.39,0,0,1,2,2h0a3.43,3.43,0,0,1,0,2.25h0A3.43,3.43,0,0,1,105.84,49.43Zm-4.69-2.09-1.5.54h0a5.22,5.22,0,0,1-.25-1.62,5.28,5.28,0,0,1,.25-1.63l0,0,1.5.54a3.89,3.89,0,0,0,0,2.14Zm8.64.54-1.51-.54a3.66,3.66,0,0,0,0-2.14l1.51-.54,0,0a5.28,5.28,0,0,1,.25,1.63,5.22,5.22,0,0,1-.25,1.62Zm-.09-3.58h0l-1.54.55a3.77,3.77,0,0,0-2-2l.55-1.54h0a5.36,5.36,0,0,1,3,3Zm-5-3.39a5.22,5.22,0,0,1,1.62.25l-.55,1.55a3.47,3.47,0,0,0-1.07-.16,3.58,3.58,0,0,0-1.08.16l-.55-1.55A5.28,5.28,0,0,1,104.72,40.91Zm-3.79,1.57a5.35,5.35,0,0,1,1.81-1.2h0l.54,1.54a3.73,3.73,0,0,0-2,2l-1.55-.55h0A5.35,5.35,0,0,1,100.93,42.48Zm-1.2,5.76h0l1.55-.55a3.75,3.75,0,0,0,2,2l-.54,1.54h0a5.33,5.33,0,0,1-1.81-1.19A5.39,5.39,0,0,1,99.73,48.24Zm5,3.39a5.28,5.28,0,0,1-1.63-.25l.55-1.55a3.58,3.58,0,0,0,1.08.16,3.47,3.47,0,0,0,1.07-.16l.55,1.55A5.22,5.22,0,0,1,104.72,51.63Zm3.79-1.57a5.39,5.39,0,0,1-1.82,1.2h0l-.55-1.54a3.77,3.77,0,0,0,2-2l1.54.55h0A5.52,5.52,0,0,1,108.51,50.06Z"/><polygon class="c" points="102.51 45.64 102.38 45.98 105.53 45.98 105.67 45.64 102.51 45.64"/><polygon class="c" points="102.68 46.32 102.55 46.66 105.36 46.66 105.49 46.32 102.68 46.32"/><path class="c" d="M103.34,46.14v-.08H103v.18h.4A.38.38,0,0,1,103.34,46.14Z"/><path class="c" d="M103,45.56h.41a1.57,1.57,0,0,1,2.63-.47l.11-.43a1.93,1.93,0,0,0-1.28-.48A2,2,0,0,0,103,45.56Z"/><path class="c" d="M103.46,46.74H103a2,2,0,0,0,1.87,1.36,2,2,0,0,0,1.09-.33v-.51a1.53,1.53,0,0,1-1.09.44A1.58,1.58,0,0,1,103.46,46.74Z"/><rect class="f" width="140" height="140"/></svg>