<svg xmlns="http://www.w3.org/2000/svg" viewBox="0 0 140 140"><defs><style>.a{fill:#fff;}.b,.d{fill:#1f2836;}.b,.c{fill-rule:evenodd;}.c,.e{fill:#83c674;}.f{fill:none;}</style></defs><title>health-icon</title><polygon class="a" points="69.54 60.29 61.14 56.74 51.86 59.84 47.18 69.2 49.83 77.52 69.54 97.58 90.76 75.57 91.64 68.23 87.48 60.29 78.56 56.74 69.54 60.29"/><path class="b" d="M90.41,41.14h1a8.25,8.25,0,0,0,1.79,4.28l-.72.72a.91.91,0,0,0,0,1.29.93.93,0,0,0,1.3,0l.71-.71a8.51,8.51,0,0,0,4.31,1.78v1a.93.93,0,0,0,1.86,0v-1a8.51,8.51,0,0,0,4.3-1.78l.71.71a.93.93,0,0,0,1.3,0,.91.91,0,0,0,0-1.29l-.71-.72a8.32,8.32,0,0,0,1.78-4.28h1a.93.93,0,0,0,0-1.86h-1A8.32,8.32,0,0,0,106.3,35l.71-.72a.93.93,0,0,0-1.32-1.3l-.71.7a8.41,8.41,0,0,0-4.3-1.77v-1a.93.93,0,0,0-1.86,0v1a8.41,8.41,0,0,0-4.31,1.77L93.8,33a.93.93,0,0,0-1.32,1.3l.72.72a8.25,8.25,0,0,0-1.79,4.28h-1a.93.93,0,0,0,0,1.86Z"/><path class="c" d="M106.2,39.28a6.45,6.45,0,0,0-1.23-3A6.31,6.31,0,0,0,103.65,35a6.49,6.49,0,0,0-3-1.23,6.28,6.28,0,0,0-1.87,0,6.49,6.49,0,0,0-3,1.23,6.26,6.26,0,0,0-1.31,1.31,6.47,6.47,0,0,0-1.24,3,7,7,0,0,0-.06.93,7.14,7.14,0,0,0,.06.93,6.53,6.53,0,0,0,5.52,5.5,6.28,6.28,0,0,0,1.87,0,6.49,6.49,0,0,0,3-1.23A6.31,6.31,0,0,0,105,44.1a6.45,6.45,0,0,0,1.23-3,5.74,5.74,0,0,0,.07-.93A5.65,5.65,0,0,0,106.2,39.28Zm-2.85,1.86a3.69,3.69,0,0,1-1.58,2.18l-.13.09a4,4,0,0,1-1,.4,3.94,3.94,0,0,1-1.87,0,4,4,0,0,1-1-.4,3.61,3.61,0,0,1-1.22-1.18.51.51,0,0,1-.09-.13,3.62,3.62,0,0,1-.4-1,3.66,3.66,0,0,1,0-1.86,4,4,0,0,1,.4-1s0,0,0,0l.93.93.45.46,0,0a1.3,1.3,0,0,0,.55.32,1.57,1.57,0,0,0,.27,0,.8.8,0,0,0,.89-.86,1.6,1.6,0,0,0,0-.29,1.47,1.47,0,0,0-.17-.36,1.28,1.28,0,0,0-.19-.23l-.48-.47-.9-.91,0,0a3.38,3.38,0,0,1,.93-.38,3.7,3.7,0,0,1,1.87,0,3.8,3.8,0,0,1,1,.39,3.74,3.74,0,0,1,1.23,1.18l.08.13a3.32,3.32,0,0,1,.4,1A3.66,3.66,0,0,1,103.35,41.14Z"/><path class="d" d="M100,92.1l0-3.67h2.34l0,3.67,0,0H100Z"/><path class="d" d="M100.17,92.42l-.48-.48h.21V88.3h2.6l0,3.64h.22l-.48.48V92.2h-2Zm0-3.86,0,3.38h2V88.56Z"/><path class="d" d="M100,94.4H96.43V92.1H100l0,0v2.36Z"/><path class="d" d="M99.88,94.75v-.22H96.29V92h3.59v-.21l.48.48h-.22v2h.22Zm-3.32-.48h3.32v-2H96.56Z"/><path class="d" d="M102.34,92.1H106v2.3h-3.62l0,0V92.07Z"/><path class="d" d="M102.5,94.74l-.49-.47h.23v-2H102l.48-.48V92h3.59v2.57H102.5Zm0-.47h3.32v-2H102.5Z"/><path class="d" d="M102.34,94.4V98H100V94.4l0,0h2.36Z"/><path class="d" d="M102.47,98.15H99.91V94.56h-.22l.48-.48v.21h2v-.2l.49.47h-.23Zm-2.3-.27h2V94.56h-2Z"/><path class="a" d="M102.37,94.43H100V92.07h2.36Z"/><path class="d" d="M102.5,94.56H99.88V91.94h2.62Zm-2.36-.27h2.1V92.2h-2.09Z"/><path class="d" d="M33.75,62.87V59.2h2.33l0,3.67,0,0H33.73Z"/><path class="d" d="M33.89,63.19l-.48-.48h.21l0-3.64h2.61l0,3.64h.21l-.48.48V63h-2Zm0-3.86v3.38h2l0-3.38Z"/><path class="d" d="M33.75,65.17H30.14v-2.3h3.61l0,0V65.2Z"/><path class="d" d="M33.59,65.52V65.3H30V62.73h3.58v-.21l.48.48h-.21v2h.21ZM30.27,65h3.32V63H30.27Z"/><path class="d" d="M36.05,62.87h3.62v2.3H36.05l0,0V62.84Z"/><path class="d" d="M36.21,65.51,35.73,65H36V63h-.22l.48-.48v.21H39.8V65.3H36.21Zm0-.47h3.33V63H36.21Z"/><path class="d" d="M36.05,65.17v3.61h-2.3V65.17l0,0h2.35Z"/><path class="d" d="M36.19,68.92H33.62V65.33h-.21l.48-.48v.21h2v-.2l.49.47h-.22Zm-2.3-.27h2V65.33h-2Z"/><path class="a" d="M36.08,65.2H33.73V62.84h2.35Z"/><path class="d" d="M36.21,65.33H33.59V62.71h2.62Zm-2.35-.27H36V63H33.86Z"/><path class="d" d="M56.61,41.74l0-3.67h2.34l0,3.67,0,0H56.58Z"/><path class="d" d="M56.74,42.06l-.48-.48h.22l0-3.64h2.6v3.64h.21l-.48.48v-.22h-2Zm0-3.86v3.38h2l0-3.38Z"/><path class="d" d="M56.61,44H53v-2.3h3.61l0,0v2.36Z"/><path class="d" d="M56.45,44.39v-.22H52.87V41.61h3.58v-.22l.48.48h-.21v2h.21Zm-3.32-.48h3.32v-2H53.13Z"/><path class="d" d="M58.91,41.74h3.62V44H58.91l0,0V41.71Z"/><path class="d" d="M59.07,44.38l-.49-.47h.23v-2h-.22l.48-.48v.22h3.59v2.56H59.07Zm0-.47H62.4v-2H59.07Z"/><path class="d" d="M58.91,44v3.62h-2.3V44l0,0h2.36Z"/><path class="d" d="M59,47.79H56.48V44.2h-.21l.47-.48v.21h2v-.21l.49.47H59Zm-2.3-.27h2V44.2h-2Z"/><path class="a" d="M58.94,44.07H56.58V41.71h2.36Z"/><path class="d" d="M58.94,44.2H56.45V41.58h2.62V44.2Zm-2.22-.27h2.09v-2.1H56.72Z"/><path class="d" d="M88.66,60.16a16.09,16.09,0,0,0-1.61-1.38l-1.74-1.1A14.07,14.07,0,0,0,69.54,59.5,14,14,0,0,0,50.42,80l6.29,6.29,1.42,1.42,10.7,10.7a1,1,0,0,0,1.42,0L88.66,80a14,14,0,0,0,0-19.83Z"/><path class="a" d="M56.3,60.37a10.51,10.51,0,0,0-6.47,9.71,1,1,0,0,0,2,0,8.5,8.5,0,0,1,2.49-6,8.62,8.62,0,0,1,2.75-1.84,1,1,0,1,0-.77-1.85Z"/><path class="d" d="M77.5,110H53.34a.4.4,0,1,1,0-.8H77.5a.4.4,0,0,1,0,.8Z"/><path class="d" d="M86.25,110h-5a.4.4,0,1,1,0-.8h5a.4.4,0,0,1,0,.8Z"/><path class="e" d="M69.67,91.66a1.33,1.33,0,0,1-1.32-1.17L66.84,77.88l-1.18,5.88a1.33,1.33,0,0,1-1.29,1.06h0a1.34,1.34,0,0,1-1.3-1L60.45,72l-2,7.83a1.32,1.32,0,0,1-1.28,1H36.26a1.33,1.33,0,1,1,0-2.65h19.9l3.08-12.27a1.33,1.33,0,0,1,2.58,0L64.3,77.09l1.58-7.84a1.32,1.32,0,0,1,2.61.11L69.65,79l1.76-15.35a1.33,1.33,0,0,1,1.32-1.17,1.31,1.31,0,0,1,1.32,1.16l1.43,11.55,1.85-6.3A1.32,1.32,0,0,1,79.9,69l1.89,10h21a1.33,1.33,0,0,1,0,2.66H80.69a1.33,1.33,0,0,1-1.3-1.08L78.32,74.9l-2.09,7.15a1.33,1.33,0,0,1-2.59-.21l-.86-6.91L71,90.48a1.33,1.33,0,0,1-1.32,1.18Z"/><rect class="f" width="140" height="140"/></svg>