<svg xmlns="http://www.w3.org/2000/svg" viewBox="0 0 140 140"><defs><style>.a,.c{fill:#1f2836;}.a,.b{fill-rule:evenodd;}.b,.e{fill:#83c674;}.d{fill:#fff;}.f{fill:none;}</style></defs><title>household-icon</title><path class="a" d="M91.32,41.59h1.05a8.61,8.61,0,0,0,1.86,4.46l-.75.75a1,1,0,0,0,0,1.34,1,1,0,0,0,1.36,0l.74-.74a8.72,8.72,0,0,0,4.47,1.85v1a1,1,0,0,0,1,.95,1,1,0,0,0,1-.95v-1a8.78,8.78,0,0,0,4.48-1.85l.74.74a1,1,0,0,0,1.35,0,1,1,0,0,0,0-1.34l-.75-.75a8.61,8.61,0,0,0,1.86-4.46h1a1,1,0,0,0,0-1.93h-1a8.65,8.65,0,0,0-1.86-4.46l.75-.74a1,1,0,0,0-1.38-1.36l-.74.73A8.69,8.69,0,0,0,102,32v-1a1,1,0,0,0-1-.94,1,1,0,0,0-1,.94v1a8.62,8.62,0,0,0-4.47,1.84l-.74-.73a1,1,0,0,0-1.38,1.36l.75.74a8.65,8.65,0,0,0-1.86,4.46H91.32a1,1,0,0,0,0,1.93Z"/><path class="b" d="M107.76,39.66a6.71,6.71,0,0,0-1.28-3.08A6.77,6.77,0,0,0,102,33.93a6.76,6.76,0,0,0-1.94,0,6.78,6.78,0,0,0-4.46,2.65,6.6,6.6,0,0,0-1.28,3.08,6.24,6.24,0,0,0-.07,1,6,6,0,0,0,.07,1,6.64,6.64,0,0,0,1.28,3.09A6.79,6.79,0,0,0,97,46a6.6,6.6,0,0,0,3.09,1.28,6.28,6.28,0,0,0,1,.07,7.73,7.73,0,0,0,1-.06,6.77,6.77,0,0,0,4.47-2.65,6.75,6.75,0,0,0,1.28-3.09,6,6,0,0,0,.07-1A6.24,6.24,0,0,0,107.76,39.66Zm-3,1.93a3.66,3.66,0,0,1-.42,1,3.75,3.75,0,0,1-1.23,1.28L103,44a4.13,4.13,0,0,1-1,.41,3.86,3.86,0,0,1-1.94,0,4.13,4.13,0,0,1-1-.41,3.82,3.82,0,0,1-1.27-1.23.71.71,0,0,1-.1-.14,4.34,4.34,0,0,1-.42-1,3.82,3.82,0,0,1,0-1.93,4.06,4.06,0,0,1,.41-1l0,0,1,1,.47.48,0,0a1.45,1.45,0,0,0,.58.34,1.51,1.51,0,0,0,.28.05.9.9,0,0,0,.68-.24.94.94,0,0,0,.25-.66,1.62,1.62,0,0,0-.23-.68,1.43,1.43,0,0,0-.2-.23l-.5-.5-.94-.94,0,0a3.38,3.38,0,0,1,1-.4,3.75,3.75,0,0,1,1.94,0,4,4,0,0,1,1,.41,3.82,3.82,0,0,1,1.28,1.22.6.6,0,0,1,.09.15,3.73,3.73,0,0,1,.42,1A3.94,3.94,0,0,1,104.8,41.59Z"/><path class="c" d="M70.7,110H28.75a.42.42,0,1,1,0-.83h42a.42.42,0,1,1,0,.83Z"/><path class="c" d="M110.45,103.86h-13a1.24,1.24,0,0,1,0-2.48h13a1.24,1.24,0,1,1,0,2.48Z"/><path class="c" d="M111.36,110H78.85a.42.42,0,1,1,0-.83h32.51a.42.42,0,0,1,0,.83Z"/><path class="c" d="M75.67,110h-2.2a.42.42,0,1,1,0-.83h2.2a.42.42,0,1,1,0,.83Z"/><polygon class="d" points="34.79 81.36 34.92 66.48 39.38 62.44 58.19 62.44 61.07 64.83 65.18 62.44 84 62.44 87.34 66.67 87.34 92.57 35.41 92.37 34.79 81.36"/><polygon class="e" points="30.68 85.29 31.36 97.03 32.23 98.19 91.46 98.19 91.46 89.08 91.46 85.88 87.34 86.99 87.2 92.37 35.41 92.37 36.03 86.99 30.68 85.29"/><circle class="e" cx="34.79" cy="81.36" r="5.94"/><circle class="e" cx="88.46" cy="81.62" r="5.94"/><path class="c" d="M89.57,74.82V69.15a7.81,7.81,0,0,0-7.81-7.81H66.15a5.53,5.53,0,0,0-4.46,2.26,5.55,5.55,0,0,0-4.46-2.26H41.61a7.82,7.82,0,0,0-7.81,7.81v5.67a6.68,6.68,0,0,0-3.34,11.57V98.15a1.11,1.11,0,0,0,1.11,1.11H33.8v3.35a1.12,1.12,0,0,0,1.12,1.11h4.46a1.12,1.12,0,0,0,1.12-1.11V99.26H82.88v3.35A1.11,1.11,0,0,0,84,103.72h4.47a1.11,1.11,0,0,0,1.11-1.11V99.26H91.8a1.12,1.12,0,0,0,1.12-1.11V86.39a6.68,6.68,0,0,0-3.35-11.57ZM62.8,66.92a3.35,3.35,0,0,1,3.35-3.35H81.76a5.58,5.58,0,0,1,5.58,5.58v5.67a6.71,6.71,0,0,0-5.58,6.6H63.92a3.31,3.31,0,0,0-1.12.2Zm0,17.84a1.12,1.12,0,0,1,1.12-1.11H82.15a6.74,6.74,0,0,0,4.08,4.07v2.62H62.8ZM36,69.15a5.57,5.57,0,0,1,5.57-5.58H57.23a3.35,3.35,0,0,1,3.34,3.35v14.7a3.21,3.21,0,0,0-1.11-.2H41.61A6.7,6.7,0,0,0,36,74.82ZM60.57,84.76v5.58H37.15V87.72a6.72,6.72,0,0,0,4.07-4.07H59.46A1.11,1.11,0,0,1,60.57,84.76ZM30.46,81.42a4.46,4.46,0,1,1,4.46,4.46A4.47,4.47,0,0,1,30.46,81.42Zm7.81,20.07H36V99.26h2.23Zm49.07,0H85.11V99.26h2.23ZM90.69,97h-58V87.72a6.8,6.8,0,0,0,2.23.39v3.34A1.12,1.12,0,0,0,36,92.57h51.3a1.12,1.12,0,0,0,1.12-1.12V88.11a6.8,6.8,0,0,0,2.23-.39ZM88.46,85.88a4.47,4.47,0,1,1,4.46-4.46A4.47,4.47,0,0,1,88.46,85.88Z"/><path class="c" d="M48.1,72.25l0-3.35h2.14l0,3.35,0,0H48.07Z"/><path class="c" d="M48.24,72.59l-.5-.5H48l0-3.33h2.42l0,3.33h.22l-.5.5v-.23H48.24Zm0-.5h1.82l0-3H48.22Z"/><path class="c" d="M48.1,74.35H44.8v-2.1h3.3l0,0v2.15Z"/><path class="c" d="M47.94,74.71v-.22H44.66V72.11h3.28v-.22l.49.5h-.22v1.82h.22Zm-3-.5h3V72.39h-3Z"/><path class="c" d="M50.2,72.25h3.3v2.1H50.2l0,0V72.23Z"/><path class="c" d="M50.36,74.71l-.5-.5h.23V72.39h-.22l.49-.5v.22h3.28v2.38H50.36Zm0-.5h3V72.39h-3Z"/><path class="c" d="M50.2,74.35v3.3H48.1v-3.3l0,0h2.16Z"/><path class="c" d="M50.34,77.79H48V74.51h-.22l.5-.49v.22h1.82V74l.5.49h-.22Zm-2.1-.28h1.82v-3H48.24Z"/><path class="d" d="M50.23,74.38H48.07V72.23h2.16Z"/><path class="c" d="M50.36,74.51H47.94V72.09h2.42Zm-2.15-.27h1.88V72.36H48.21Z"/><path class="c" d="M74.14,72.25l0-3.35h2.13v3.35l0,0H74.11Z"/><path class="c" d="M74.28,72.59l-.5-.5H74l0-3.33h2.41v3.33h.22l-.5.5v-.23H74.28Zm0-.5H76.1l0-3H74.26Z"/><path class="c" d="M74.14,74.35h-3.3v-2.1h3.3l0,0v2.15Z"/><path class="c" d="M74,74.71v-.22H70.7V72.11H74v-.22l.5.5h-.22v1.82h.22Zm-3-.5h3V72.39H71Z"/><path class="c" d="M76.24,72.25h3.3v2.1h-3.3l0,0V72.23Z"/><path class="c" d="M76.4,74.7l-.5-.49h.23V72.39h-.22l.49-.5v.22h3.28v2.38H76.4Zm0-.49h3V72.39h-3Z"/><path class="c" d="M76.24,74.35v3.3h-2.1v-3.3l0,0h2.15Z"/><path class="c" d="M76.38,77.79H74V74.51h-.22l.49-.49v.22H76.1V74l.5.48h-.22Zm-2.11-.28H76.1v-3H74.27Z"/><path class="d" d="M76.26,74.38H74.11V72.23h2.15Z"/><path class="c" d="M76.4,74.51H74V72.09H76.4Zm-2.15-.27h1.88V72.36H74.25Z"/><path class="a" d="M47.4,37.57a2.27,2.27,0,1,1,2.27-2.27A2.28,2.28,0,0,1,47.4,37.57ZM31.51,45.18s1.57-10.63,3.91-10.63,3.36,7.5,5.24,7.5,1.74-2.93,3.12-2.93,6.11,6.06,6.11,6.06ZM30,31.51V46.65h21.2V31.51ZM28.47,30H52.69V48.17H28.47Z"/><line class="c" x1="101.04" y1="49.92" x2="101.04" y2="103.72"/><rect class="c" x="100.49" y="49.92" width="1.1" height="53.8"/><rect class="f" width="140" height="140"/></svg>