<svg xmlns="http://www.w3.org/2000/svg" viewBox="0 0 140 140"><defs><style>.a,.d{fill:#83c674;}.b,.c{fill:#1f2836;}.c,.d{fill-rule:evenodd;}.e{fill:none;}</style></defs><title>lifestyle-icon</title><path class="a" d="M28.73,107.09s3.86-24.59,9.93-12.45,4.23,13.58,12.43,6.07,11.87-13,19.59-3.86,10.74,16.9,16.69,10.24,9.54-3.34,11.47-1.13S28.73,107.09,28.73,107.09Z"/><path class="b" d="M89.83,60.94c-.6-.26-2.5.69-3.7,1.64a8.44,8.44,0,0,1-4,1.85c-1.64.26-4.83.47-6.46,1.42a15.59,15.59,0,0,1-5.74,2.37c-2.54.43-5,1.17-5.68,1.25s-.74-.17-.74-.17a2.05,2.05,0,0,1,.35-1.08,4.7,4.7,0,0,0,.47-1.81c.09-.47-.41-1-.24-1.54a6.07,6.07,0,0,0,.31-1.68s1.18-.4,1.18-.4a27.3,27.3,0,0,1,3.06-1.2c.56-.09,1.55-.65,3.06-1.21a3.39,3.39,0,0,1,2.11-.26c.39,0,2.07-.34,2.07-.34a2.68,2.68,0,0,1,.69.25.36.36,0,0,0,.49-.1c0-.12-.19-.22-.37-.42a5.65,5.65,0,0,1-.41-.51,1.91,1.91,0,0,0,.53-.19.79.79,0,0,0,.15-.37h-.33c-.41,0-1.08,0-1.08,0a1.44,1.44,0,0,1,.5-.26,5.06,5.06,0,0,0,.83-.27c.2-.1.2-.22.2-.22l-.74.05a9,9,0,0,0-1.5.08,6.18,6.18,0,0,0-1.38.52,4.15,4.15,0,0,1-.77.39l-3,.64a51.34,51.34,0,0,0-5.3,1.39l-.45.26a7.39,7.39,0,0,0-1.13-1.23c-.36-.19-.65.39-.65.39s-.31,1.19-.42,1.59-.16.57-.16.57-1.45-.09-2.39-.09-1.94-.32-2.39.06a1.7,1.7,0,0,1-1,.39s-.38-.87,0-1.23a2.25,2.25,0,0,0,.49-.55s.19.52.55.52a1.83,1.83,0,0,0,1.65-1.58c.06-1.16-.39-1.42-.39-1.42a1.49,1.49,0,0,0,.09-1.81,5.75,5.75,0,0,0-3.77-2c-.59.13-.4.28-.4.28a2.61,2.61,0,0,0-1.26.84c-.32.54-.21.7-.51,1a4.09,4.09,0,0,1-1,.53s-.15.25,0,.35a.8.8,0,0,1,.21.26l-.09.37.09.18-.14,0a2.76,2.76,0,0,1-.06.58c-.05.21-.19.35-.26.63s.33.7.79.91.87.23.91.61a8.53,8.53,0,0,1-.09,1.56.82.82,0,0,1-.73.44,19.36,19.36,0,0,1-3.25-1.49c-.21-.18-2.38-2.21-2.92-2.66s-2.23-2-4.42-3.77-2.1-1.82-3-2.1a6.09,6.09,0,0,1-2.07-.86c-.44-.39-1-.88-1-.88s-.13.56,0,.78l.41.5s-1.25-.07-1.65-.14a4.61,4.61,0,0,0-1,0s-.16.36.4.47a7.7,7.7,0,0,1,1.09.29l.26.25s-1.1.4-1.33.53a.79.79,0,0,0-.37.42s.19.09.34.09a2.21,2.21,0,0,0,.47-.13,2.21,2.21,0,0,0-.19.32c0,.09.52.16.66,0a4.81,4.81,0,0,1,.54-.31l.32.15,1.22.16,0,.31a.33.33,0,0,0,.3,0,3.91,3.91,0,0,1,1.59-.15c.46.08,1.47,1.26,2.59,2.6a15.08,15.08,0,0,0,2.81,2.75,1.59,1.59,0,0,0,.47.13,19.25,19.25,0,0,0,2.67,2.46c1.29.9,2.8,1.94,3,2.54s-.22.91-.31,1.64a3.29,3.29,0,0,0,.26,1.51l.78,2.67a9.41,9.41,0,0,0,2.92,3.1,6.43,6.43,0,0,1,2.21,1.55,16,16,0,0,1-.52,2.89c-.05.21-2.46,4.82-2.76,5.43a5.8,5.8,0,0,1-.95,1.24,1.28,1.28,0,0,0,1.42.48c.82-.35.78-.35,1.38-.22s1.29.3,1.43-.43.08-1.33.47-1.42a2,2,0,0,0,1.12-1.08c.17-.47.34-1.16.34-1.16s.86,5.69.91,6.85,0,2.63,0,4.91a43.74,43.74,0,0,1-.82,6.81,7.3,7.3,0,0,0-.26,3.49,18.83,18.83,0,0,1,.6,3c0,.25.78.64,1.17.17s-.18-1.55.38-2.76a4.35,4.35,0,0,1,1.69-2.06c.38-.18.55-.74,0-1.51a2.81,2.81,0,0,1-.65-2.89c.43-1.42,1.59-4.44,1.55-6.25s-.69-3.4-.47-4.69a42.59,42.59,0,0,0,.9-6.56A43.45,43.45,0,0,1,63,75.67l.14-.94a86.21,86.21,0,0,0,8.31-3.45,30.08,30.08,0,0,0,3.88-2.37c.38-.34,4.09-1.08,5.55-1.85A12.9,12.9,0,0,1,85,65.85a9.13,9.13,0,0,0,4.09-2.2C90.09,62.58,90.44,61.2,89.83,60.94ZM59.34,68.37A4,4,0,0,0,58.46,70H57l.16-4.43s1.78-.23,2.42-.34l1.1-.19A12.08,12.08,0,0,1,59.34,68.37Z"/><path class="c" d="M91.3,41.59h1a8.61,8.61,0,0,0,1.86,4.46l-.75.75a1,1,0,0,0,0,1.34,1,1,0,0,0,1.36,0l.74-.74a8.72,8.72,0,0,0,4.47,1.85v1a1,1,0,0,0,2,0v-1a8.79,8.79,0,0,0,4.47-1.85l.74.74a1,1,0,0,0,1.35,0,1,1,0,0,0,0-1.34l-.75-.75a8.61,8.61,0,0,0,1.86-4.46h1a1,1,0,0,0,0-1.93h-1a8.65,8.65,0,0,0-1.86-4.46l.75-.74a1,1,0,0,0-1.38-1.36l-.74.73A8.69,8.69,0,0,0,102,32v-1a1,1,0,0,0-2,0v1a8.62,8.62,0,0,0-4.47,1.84l-.74-.73a1,1,0,0,0-1.38,1.36l.75.74a8.65,8.65,0,0,0-1.86,4.46h-1a1,1,0,0,0,0,1.93Z"/><path class="d" d="M107.74,39.66a6.71,6.71,0,0,0-1.28-3.08A6.77,6.77,0,0,0,102,33.93a6.76,6.76,0,0,0-1.94,0,6.78,6.78,0,0,0-4.46,2.65,6.6,6.6,0,0,0-1.28,3.08,6.24,6.24,0,0,0-.07,1,6,6,0,0,0,.07,1,6.64,6.64,0,0,0,1.28,3.09A6.79,6.79,0,0,0,97,46a6.6,6.6,0,0,0,3.09,1.28,6.28,6.28,0,0,0,1,.07,7.73,7.73,0,0,0,1-.06,6.77,6.77,0,0,0,4.47-2.65,6.75,6.75,0,0,0,1.28-3.09,6,6,0,0,0,.07-1A6.24,6.24,0,0,0,107.74,39.66Zm-3,1.93a3.66,3.66,0,0,1-.42,1,3.75,3.75,0,0,1-1.23,1.28L103,44a4.13,4.13,0,0,1-1,.41,3.86,3.86,0,0,1-1.94,0,4.13,4.13,0,0,1-1-.41,3.82,3.82,0,0,1-1.27-1.23.71.71,0,0,1-.1-.14,4.34,4.34,0,0,1-.42-1,3.82,3.82,0,0,1,0-1.93,4.06,4.06,0,0,1,.41-1l0,0,1,1,.47.48,0,0a1.45,1.45,0,0,0,.58.34,1.51,1.51,0,0,0,.28.05.9.9,0,0,0,.68-.24.94.94,0,0,0,.25-.66,1.62,1.62,0,0,0-.23-.68,1.43,1.43,0,0,0-.2-.23l-.5-.5-.94-.94,0,0a3.38,3.38,0,0,1,1-.4,3.75,3.75,0,0,1,1.94,0,4,4,0,0,1,1,.41,3.73,3.73,0,0,1,1.28,1.22.6.6,0,0,1,.09.15,3.73,3.73,0,0,1,.42,1A3.94,3.94,0,0,1,104.78,41.59Z"/><path class="b" d="M70.68,110H28.73a.42.42,0,1,1,0-.83h42a.42.42,0,1,1,0,.83Z"/><path class="b" d="M75.65,110h-2.2a.42.42,0,1,1,0-.83h2.2a.42.42,0,1,1,0,.83Z"/><rect class="e" width="140" height="140"/></svg>