<svg xmlns="http://www.w3.org/2000/svg" viewBox="0 0 140 140"><defs><style>.a{fill:#fff;}.b,.e{fill:#83c674;}.c,.d{fill:#1f2836;}.d,.e{fill-rule:evenodd;}.f{fill:none;}</style></defs><title>personal-growth-icon</title><polygon class="a" points="46.76 92.19 44.04 95 43.25 98 43.83 98.4 46.56 96.9 46.56 101.19 51.73 106.05 91.86 105.56 92.45 99.12 90.85 96.36 91.39 95.88 95.02 98.22 95.95 98.22 95.56 95.83 92.48 92.53 90.47 96.36 87.19 95.97 73.73 99.69 69.09 100.61 50.85 95.22 48.02 95.63 46.76 92.19"/><polygon class="a" points="67.25 77.57 67.25 75.67 64.73 73.51 63.1 71.05 61.68 69.7 62.24 67.1 62.91 60.42 66.33 57.06 69.66 56.13 71.5 56.75 73.44 57.15 76.34 59.63 76.99 63.25 76.99 67.94 77.73 69.21 75.7 71.3 74.02 74.03 71.76 75.67 71.81 77.89 67.25 77.57"/><path class="b" d="M84.5,88.05l-2.39-4.33-3.32-4.24L72,77.57l-2.91.61-1.84-.61-3.89.89-3.84,1.77-5,7.82-7.92,3.67,1.68,3.91.37-.08,8.83-3.34,3.49-4.38V97.89h0l9.28,2.72L88.3,95.88l2.43.75,2-4.77ZM78.22,98.22V87.83l3.31,3.72,5.75,2.83,2,1.25Z"/><path class="c" d="M93.05,99.48a4.73,4.73,0,0,0-1.31-2.78l3,2a1.22,1.22,0,0,0,.66.2,1.22,1.22,0,0,0,1.21-1.34,6.9,6.9,0,0,0-3-5l-.37-.25.26-.59-8.43-4-3-5.09a8.05,8.05,0,0,0-5.51-4.49l-4.13-.93V76a6.71,6.71,0,0,0,3.78-4.67,2.36,2.36,0,0,0,1.32-4v-5a5.9,5.9,0,0,0-5.85-5.9A2.24,2.24,0,0,0,70,55.64h0a8.18,8.18,0,0,0-5.78,2.41,8.36,8.36,0,0,0-2.48,6v3.36a2.36,2.36,0,0,0,1.34,3.93A6.75,6.75,0,0,0,66.9,76v1.16l-4.13.93a8,8,0,0,0-5.51,4.49l-3,5.09-8.44,4,.26.59-.36.25a6.87,6.87,0,0,0-3,5,1.2,1.2,0,0,0,.57,1.16,1.23,1.23,0,0,0,.63.18,1.27,1.27,0,0,0,.67-.2l1.29-.85a4.13,4.13,0,0,0-.2.94,4.7,4.7,0,0,0,.21,2H42.37V110H96.93v-9.18H93A5,5,0,0,0,93.05,99.48Zm-4.32,4.15L71,104.86l-.4-3.81L88,96.38a3.65,3.65,0,0,1,4,3.22A3.66,3.66,0,0,1,88.73,103.63Zm-20.67,1.2-3.8,0-3.85.43a3.18,3.18,0,0,1,3.07-2.88l4.26-.48Zm-4.71-3.51a4.67,4.67,0,0,0-3.6,2.26L50,102.91a3.65,3.65,0,0,1,.42-7.28l.37,0,17.79,4.8-1,.26v.13Zm-2.89-4.21-8.33-2.25,5.75-2.29,2.58-3.43ZM69.21,105l-.39-3.44.7-.19.37,3.59Zm26.27-7.34a.09.09,0,0,1,0,.09.08.08,0,0,1-.1,0l-3.47-2.29.93-2.09.17.12A5.73,5.73,0,0,1,95.48,97.64ZM76.34,70.08c0-.07,0-.15,0-.23v-.08a2.06,2.06,0,0,0,.64-.45A1.26,1.26,0,0,1,76.34,70.08Zm0-7.8V68a.75.75,0,0,1,0,.26v0a3.64,3.64,0,0,0-.63-2,2.52,2.52,0,0,1-.43-1.41v-.86a2.52,2.52,0,0,0-2.52-2.52H72a5.08,5.08,0,0,0,.22-1.47V57.85a1.73,1.73,0,0,0,0-.32A4.79,4.79,0,0,1,76.39,62.28ZM62.83,64A7.22,7.22,0,0,1,65,58.85a7,7,0,0,1,5-2.1h0a1.1,1.1,0,0,1,1.09,1.1v2.09a3.91,3.91,0,0,1-3.9,3.9,4.3,4.3,0,0,0-4.29,4.3v.06a1,1,0,0,1-.08-.37V64Zm-.59,5.21a2,2,0,0,0,.67.51v.36A1.25,1.25,0,0,1,62.24,69.21Zm1.78.64V68.14A3.19,3.19,0,0,1,67.2,65a5,5,0,0,0,4.3-2.44h1.27a1.41,1.41,0,0,1,1.4,1.41v.86a3.61,3.61,0,0,0,.63,2,2.54,2.54,0,0,1,.43,1.41v1.6a5.61,5.61,0,0,1-11.21,0Zm5.61,6.72a6.51,6.51,0,0,0,1.66-.21v.88a4.24,4.24,0,0,1-3.28,0v-.87A6.66,6.66,0,0,0,69.63,76.57Zm-14.58,12,3.18-5.41,0,0A6.93,6.93,0,0,1,63,79.17l4.38-1a5.28,5.28,0,0,0,4.53,0l4.37,1a7,7,0,0,1,4.76,3.89l3.21,5.46L92,92.24l-1.44,3.23h0l-.12.29a4.76,4.76,0,0,0-2.71-.5h0l-8.89,2.4V89.14l2.58,3.43,5.77,2.3.41-1-5.48-2.18-3.28-4.36v-1.6H77.73V98l-7,1.89-9.13-2.46V85.69H60.46v1.6l-3.29,4.36-7.26,2.89a4.65,4.65,0,0,0-1.43.38l-1.2-2.68ZM44,97.73a.08.08,0,0,1-.1,0,.08.08,0,0,1,0-.09,5.75,5.75,0,0,1,2.51-4.17l.17-.12.94,2.09Z"/><path class="c" d="M66.91,69.1a.4.4,0,0,1-.34-.2.45.45,0,0,0-.4-.21H66a.48.48,0,0,0-.43.69,1.52,1.52,0,0,0,1.35.83,1.54,1.54,0,0,0,1.36-.83.48.48,0,0,0-.44-.69h-.18a.45.45,0,0,0-.39.21A.43.43,0,0,1,66.91,69.1Z"/><path class="c" d="M72.39,70.21a1.52,1.52,0,0,0,1.23-.62.57.57,0,0,0-.46-.9h0a.55.55,0,0,0-.44.23.39.39,0,0,1-.33.18.41.41,0,0,1-.33-.18.54.54,0,0,0-.44-.23h0a.57.57,0,0,0-.45.9A1.51,1.51,0,0,0,72.39,70.21Z"/><rect class="c" x="69.09" y="82.55" width="1.12" height="15.07" rx="0.56" ry="0.56"/><path class="d" d="M90.34,41.14h1a8.39,8.39,0,0,0,1.78,4.29l-.71.71a.91.91,0,0,0,0,1.29.93.93,0,0,0,1.31,0l.71-.71a8.39,8.39,0,0,0,4.3,1.78v1a.94.94,0,0,0,1.87,0v-1a8.36,8.36,0,0,0,4.29-1.78l.72.71A.93.93,0,0,0,107,46.14l-.72-.71A8.32,8.32,0,0,0,108,41.14h1a.93.93,0,0,0,0-1.86h-1A8.29,8.29,0,0,0,106.23,35l.72-.71a.93.93,0,0,0,0-1.3.92.92,0,0,0-1.3,0l-.72.7a8.35,8.35,0,0,0-4.29-1.77v-1a.94.94,0,0,0-1.87,0v1a8.38,8.38,0,0,0-4.3,1.77l-.71-.7a.93.93,0,0,0-1.32,1.31l.71.71a8.36,8.36,0,0,0-1.78,4.28h-1a.93.93,0,0,0,0,1.86Z"/><path class="e" d="M106.14,39.28a6.51,6.51,0,0,0-1.24-3A6.26,6.26,0,0,0,103.59,35a6.53,6.53,0,0,0-3-1.23,6.21,6.21,0,0,0-1.86,0,6.49,6.49,0,0,0-4.29,2.54,6.39,6.39,0,0,0-1.23,3,5.86,5.86,0,0,0-.07.94,5.62,5.62,0,0,0,.07.92,6.3,6.3,0,0,0,1.23,3,6.44,6.44,0,0,0,4.29,2.55,7.24,7.24,0,0,0,1.86,0,6.53,6.53,0,0,0,3-1.23,6.07,6.07,0,0,0,1.31-1.32,6.42,6.42,0,0,0,1.24-3,7,7,0,0,0,.06-.92A7.3,7.3,0,0,0,106.14,39.28Zm-2.85,1.86a3.68,3.68,0,0,1-.4,1,3.74,3.74,0,0,1-1.18,1.23l-.14.08a3.83,3.83,0,0,1-1,.4,3.66,3.66,0,0,1-1.86,0,4,4,0,0,1-1-.39,3.75,3.75,0,0,1-1.23-1.18,1.1,1.1,0,0,1-.09-.14,4,4,0,0,1-.4-1,3.66,3.66,0,0,1,0-1.86,3.76,3.76,0,0,1,.4-1l0,0,.93.92.45.46s0,0,0,0a1.51,1.51,0,0,0,.56.32l.27,0a.85.85,0,0,0,.65-.24.87.87,0,0,0,.24-.63,1.4,1.4,0,0,0-.06-.28,1.34,1.34,0,0,0-.16-.37,2,2,0,0,0-.19-.22l-.48-.48-.9-.9,0,0a3.78,3.78,0,0,1,.94-.38,3.66,3.66,0,0,1,1.86,0,3.37,3.37,0,0,1,1,.4,3.44,3.44,0,0,1,1.23,1.17.42.42,0,0,1,.09.14,3.92,3.92,0,0,1,.4,1A3.78,3.78,0,0,1,103.29,41.14Z"/><path class="c" d="M108.73,110H31.26a1.2,1.2,0,0,1,0-2.39h77.47a1.2,1.2,0,0,1,0,2.39Z"/><path class="c" d="M99.18,78.85l0-3.67h2.34l0,3.67,0,0H99.15Z"/><path class="c" d="M99.31,79.18l-.48-.49H99V75.05h2.6l0,3.64h.22l-.48.49V79h-2Zm0-3.86,0,3.37h2V75.32Z"/><path class="c" d="M99.18,81.16H95.56V78.85h3.62l0,0v2.35Z"/><path class="c" d="M99,81.51v-.22H95.43V78.72H99v-.21l.48.48h-.22v2h.22ZM95.7,81H99V79H95.7Z"/><path class="c" d="M101.48,78.85h3.62v2.31h-3.62l0,0V78.83Z"/><path class="c" d="M101.64,81.5l-.49-.48h.22V79h-.21l.48-.48v.21h3.59v2.57h-3.59Zm0-.48H105V79h-3.33Z"/><path class="c" d="M101.48,81.16v3.61h-2.3V81.16l0,0h2.36Z"/><path class="c" d="M101.61,84.91H99V81.32h-.21l.48-.49v.22h2v-.2l.49.47h-.23Zm-2.3-.27h2V81.32h-2Z"/><path class="a" d="M101.51,81.18H99.15V78.83h2.36Z"/><path class="c" d="M101.64,81.32H99V78.69h2.62Zm-2.36-.27h2.09V79H99.28Z"/><path class="c" d="M37.91,72.88l0-3.67h2.34l0,3.67,0,0H37.88Z"/><path class="c" d="M38,73.21l-.47-.49h.21l0-3.64h2.6v3.64h.21l-.48.48V73H38Zm0-3.87v3.38h2l0-3.38Z"/><path class="c" d="M37.91,75.18H34.3v-2.3h3.61l0,0v2.36Z"/><path class="c" d="M37.75,75.53v-.21H34.16V72.75h3.59v-.22l.48.48H38v2h.22Zm-3.32-.48h3.32V73H34.43Z"/><path class="c" d="M40.21,72.88h3.62v2.3H40.21l0,0V72.85Z"/><path class="c" d="M40.37,75.53l-.49-.48h.23V73h-.22l.48-.47v.21H44v2.57H40.37Zm0-.48H43.7V73H40.37Z"/><path class="c" d="M40.21,75.18V78.8h-2.3V75.18l0,0h2.36Z"/><path class="c" d="M40.34,78.93H37.78V75.34h-.22l.48-.48v.22h2v-.21l.49.47h-.23ZM38,78.67h2V75.34H38Z"/><path class="a" d="M40.24,75.21H37.88V72.85h2.36Z"/><path class="c" d="M40.37,75.34H37.75V72.72h2.62ZM38,75.08h2.1V73H38Z"/><path class="c" d="M54.48,39.09V35.42h2.34l0,3.67,0,0H54.46Z"/><path class="c" d="M54.62,39.41l-.48-.48h.21l0-3.64h2.61l0,3.64h.22l-.49.48v-.22h-2Zm0-3.86,0,3.38h2V35.55Z"/><path class="c" d="M54.49,41.39H50.87v-2.3h3.61l0,0v2.36Z"/><path class="c" d="M54.33,41.74v-.22H50.74V39h3.59v-.22l.47.48h-.21v2h.21ZM51,41.26h3.32v-2H51Z"/><path class="c" d="M56.79,39.09h3.62v2.3H56.79l0,0V39.06Z"/><path class="c" d="M57,41.73l-.49-.47h.22v-2h-.21l.48-.48V39h3.59v2.56H57Zm0-.47h3.32v-2H57Z"/><path class="c" d="M56.79,41.39V45h-2.3V41.39l0,0h2.36Z"/><path class="c" d="M56.92,45.14H54.35V41.55h-.21l.48-.48v.22h2v-.21l.49.47h-.22Zm-2.3-.26h2V41.55h-2Z"/><path class="a" d="M56.82,41.42H54.46V39.06h2.35Z"/><path class="c" d="M56.81,41.55H54.33V38.93H57v2.62Zm-2.22-.26h2.09v-2.1H54.59Z"/><rect class="f" width="140" height="140"/></svg>