<svg xmlns="http://www.w3.org/2000/svg" viewBox="0 0 140 140"><defs><style>.a,.d{fill:#1f2836;}.b,.e{fill:#83c674;}.c{fill:#fff;}.d,.e{fill-rule:evenodd;}.f{fill:none;}</style></defs><title>psychic-icon</title><path class="a" d="M72.3,32.42a6.1,6.1,0,0,1,3.23,1.95,5,5,0,0,1,1.16,3c0,.88,0,1.77,0,2.65q0,13,0,26.11c0,.18,0,.36,0,.53,0,.53-.08,1.19.69,1.18s.63-.64.63-1.14c0-6.51,0-13,0-19.53a5.24,5.24,0,0,1,10.44-.82c0,.45,0,.91,0,1.36q0,14.64,0,29.29v.87a2.94,2.94,0,0,0,2-1.52,51,51,0,0,1,3.29-4.41A15.11,15.11,0,0,1,102,66.85a10.08,10.08,0,0,1,2.62-.24,3,3,0,0,1,2.8,2.71c.44,2.28-.69,3.93-2.17,5.35a25.43,25.43,0,0,0-3.91,5c-4.16,6.73-8.31,13.47-12.63,20.1a21.94,21.94,0,0,1-14.45,9.54,32.06,32.06,0,0,1-17.23-1,15.62,15.62,0,0,1-9.39-8.69,28.53,28.53,0,0,1-2.43-11.9q0-16.89,0-33.76a4.7,4.7,0,0,1,3.09-4.8,4.59,4.59,0,0,1,6.12,4.42c0,2.06,0,4.13,0,6.2v9.46c0,.18-.06.39,0,.52s.36.64.6.71c.47.12.66-.27.69-.69,0-.25,0-.5,0-.76q0-12.45,0-24.9a4.66,4.66,0,0,1,2.51-4.55,4.55,4.55,0,0,1,6.62,3.72c.08,1.61,0,3.22,0,4.84V66.46c0,.23-.07.5,0,.67a4.35,4.35,0,0,0,.65.71,4.17,4.17,0,0,0,.63-.71c.1-.18,0-.45,0-.67,0-9.24.06-18.47,0-27.71,0-2.84.94-5.46,4.58-6.33ZM47.85,71.75c0,5.29,0,10.59,0,15.89A27.32,27.32,0,0,0,49.41,97a13.93,13.93,0,0,0,9,8.86,31.52,31.52,0,0,0,11,1.43,21.91,21.91,0,0,0,8-1.66,20.54,20.54,0,0,0,10-8.53c3.88-6.34,7.92-12.59,11.83-18.91A24.31,24.31,0,0,1,103.27,73,6.6,6.6,0,0,0,104.7,71a2.35,2.35,0,0,0,0-1.57c-.06-.19-.75-.27-1.13-.23a11.55,11.55,0,0,0-6.31,3,21.44,21.44,0,0,0-4.43,5.42,5.56,5.56,0,0,1-3.25,2.67c-2.37.71-3.62-.22-3.64-2.67,0-.15,0-.3,0-.45V47.48a6.86,6.86,0,0,0,0-.91,2.64,2.64,0,0,0-2.33-2.32A2.58,2.58,0,0,0,80.84,46a5.29,5.29,0,0,0-.18,1.49q0,9.49,0,19c0,.3,0,.6,0,.91a3.25,3.25,0,0,1-5.06,2.53,3.45,3.45,0,0,1-1.47-3.13q0-14.23,0-28.46a6.92,6.92,0,0,0,0-.91,2.59,2.59,0,0,0-2.31-2.33A2.54,2.54,0,0,0,69,36.78a4.89,4.89,0,0,0-.19,1.48q0,14.09,0,28.16a10.73,10.73,0,0,1,0,1.13,3.2,3.2,0,0,1-2.92,2.88A3.24,3.24,0,0,1,62.3,67q0-11.39,0-22.78a5.72,5.72,0,0,0,0-.83A2,2,0,0,0,61,41.74a1.83,1.83,0,0,0-2,.41,2.24,2.24,0,0,0-.65,1.78q0,12.6,0,25.2a8,8,0,0,1,0,1,3.19,3.19,0,0,1-2.08,2.75,3.14,3.14,0,0,1-3.38-.63,3.51,3.51,0,0,1-1.08-2.87q0-7.65,0-15.29A4.67,4.67,0,0,0,51.71,53a1.92,1.92,0,0,0-2.93-1.16,2.22,2.22,0,0,0-.94,2.1Q47.86,62.82,47.85,71.75Z"/><path class="b" d="M47.85,71.75q0-8.94,0-17.86a2.22,2.22,0,0,1,.94-2.1A1.92,1.92,0,0,1,51.71,53a4.67,4.67,0,0,1,.09,1.12q0,7.65,0,15.29a3.51,3.51,0,0,0,1.08,2.87,3.14,3.14,0,0,0,3.38.63,3.19,3.19,0,0,0,2.08-2.75,8,8,0,0,0,0-1q0-12.6,0-25.2A2.24,2.24,0,0,1,59,42.15a1.83,1.83,0,0,1,2-.41,2,2,0,0,1,1.3,1.63,5.72,5.72,0,0,1,0,.83q0,11.38,0,22.78a3.24,3.24,0,0,0,3.59,3.45,3.2,3.2,0,0,0,2.92-2.88,10.73,10.73,0,0,0,0-1.13q0-14.08,0-28.16A4.89,4.89,0,0,1,69,36.78a2.54,2.54,0,0,1,2.73-1.7,2.59,2.59,0,0,1,2.31,2.33,6.92,6.92,0,0,1,0,.91q0,14.24,0,28.46a3.45,3.45,0,0,0,1.47,3.13,3.25,3.25,0,0,0,5.06-2.53c0-.31,0-.61,0-.91q0-9.49,0-19A5.29,5.29,0,0,1,80.84,46a2.58,2.58,0,0,1,2.72-1.73,2.64,2.64,0,0,1,2.33,2.32,6.86,6.86,0,0,1,0,.91V77.22c0,.15,0,.3,0,.45,0,2.45,1.27,3.38,3.64,2.67a5.56,5.56,0,0,0,3.25-2.67,21.44,21.44,0,0,1,4.43-5.42,11.55,11.55,0,0,1,6.31-3c.38,0,1.07,0,1.13.23a2.35,2.35,0,0,1,0,1.57A6.6,6.6,0,0,1,103.27,73a24.31,24.31,0,0,0-4.09,5.21c-3.91,6.32-8,12.57-11.83,18.91a20.54,20.54,0,0,1-10,8.53,21.91,21.91,0,0,1-8,1.66,31.52,31.52,0,0,1-11-1.43,13.93,13.93,0,0,1-9-8.86,27.32,27.32,0,0,1-1.56-9.35C47.84,82.34,47.85,77,47.85,71.75Z"/><path class="c" d="M91.43,88.74c-5-5.7-12-12.25-21.36-12.25a20.28,20.28,0,0,0-10.95,3.3c-3,1.86-6.13,4.49-10.38,8.78l-.64.65,1.24,1.25a57.46,57.46,0,0,0,9.08,8A20.49,20.49,0,0,0,70.07,102a21.69,21.69,0,0,0,12.21-4,58,58,0,0,0,8.64-7.46l.46-.45.62-.62Z"/><path class="a" d="M70.07,102.62a21.19,21.19,0,0,1-12-3.61A58.8,58.8,0,0,1,48.87,91l-1.71-1.72,1.11-1.12a56.87,56.87,0,0,1,10.51-8.89,20.84,20.84,0,0,1,11.29-3.4c9.63,0,16.74,6.67,21.86,12.48l1,1.12-1.53,1.51a58.51,58.51,0,0,1-8.74,7.55A22.36,22.36,0,0,1,70.07,102.62ZM49,89.22l.77.79a57.31,57.31,0,0,0,9,7.88,19.85,19.85,0,0,0,11.29,3.4,21.06,21.06,0,0,0,11.84-3.92A57.06,57.06,0,0,0,90.45,90l.64-.63-.16-.18c-4.94-5.6-11.76-12-20.86-12a19.59,19.59,0,0,0-10.6,3.21A56.26,56.26,0,0,0,49.21,89Z"/><path class="d" d="M60.68,90.15h1a8.28,8.28,0,0,0,1.79,4.3l-.72.72a.93.93,0,0,0,1.32,1.32l.72-.72a8.43,8.43,0,0,0,4.32,1.79v1a.94.94,0,0,0,1.87,0v-1a8.44,8.44,0,0,0,4.31-1.79l.72.72a.93.93,0,0,0,1.3,0,.91.91,0,0,0,0-1.3l-.72-.72a8.12,8.12,0,0,0,1.79-4.3h1a.93.93,0,0,0,0-1.86h-1A8.12,8.12,0,0,0,76.62,84l.72-.72a.9.9,0,0,0,0-1.29A.91.91,0,0,0,76,82l-.72.71A8.42,8.42,0,0,0,71,80.89v-1a.94.94,0,0,0-1.87,0v1a8.42,8.42,0,0,0-4.32,1.78L64.08,82a.93.93,0,0,0-1.32,1.31l.72.72a8.28,8.28,0,0,0-1.79,4.3h-1a.93.93,0,0,0,0,1.86Z"/><path class="e" d="M76.53,88.29A6.53,6.53,0,0,0,71,82.77a5.65,5.65,0,0,0-.93-.07,5.86,5.86,0,0,0-.94.07,6.48,6.48,0,0,0-3,1.23,6.35,6.35,0,0,0-1.32,1.32,6.5,6.5,0,0,0-1.24,3,7.16,7.16,0,0,0-.07.94,7,7,0,0,0,.07.92,6.49,6.49,0,0,0,2.56,4.29,6.39,6.39,0,0,0,3,1.24,7.3,7.3,0,0,0,.94.06,7,7,0,0,0,.93-.06,6.54,6.54,0,0,0,5.55-5.53,7,7,0,0,0,.07-.92A7.16,7.16,0,0,0,76.53,88.29Zm-2.86,1.86a3.68,3.68,0,0,1-.4,1,3.61,3.61,0,0,1-1.19,1.24l-.13.08a3.9,3.9,0,0,1-1,.4,3.7,3.7,0,0,1-1.87,0,3.83,3.83,0,0,1-1-.4,3.55,3.55,0,0,1-1.23-1.18.42.42,0,0,1-.09-.14,3.86,3.86,0,0,1-.41-1,3.66,3.66,0,0,1,0-1.86,3.83,3.83,0,0,1,.4-1l0,0,.93.93.46.46,0,0a1.48,1.48,0,0,0,.56.33,1.36,1.36,0,0,0,.27,0,.8.8,0,0,0,.89-.86A1,1,0,0,0,70,88a1.53,1.53,0,0,0-.17-.37,1.24,1.24,0,0,0-.19-.22l-.48-.48-.9-.91,0,0a3.61,3.61,0,0,1,.94-.39,3.82,3.82,0,0,1,1.87,0,4.13,4.13,0,0,1,1,.4,3.64,3.64,0,0,1,1.23,1.18,1.1,1.1,0,0,1,.09.14,3.49,3.49,0,0,1,.4,1A3.78,3.78,0,0,1,73.67,90.15Z"/><path class="a" d="M37.37,35.31l0-5.18h3.3l0,5.18,0,0H37.33Z"/><path class="a" d="M40.49,35.64v-.23h-3v.21l-.26-.25L37,35.14h.23l0-5.14h3.57l0,5.14H41Zm-3-5.37,0,4.87h3l0-4.87Z"/><path class="a" d="M37.37,38.57h-5.1V35.31h5.1l0,0V38.6Z"/><path class="a" d="M37.2,38.93V38.7H32.14V35.18H37.2V35l.49.5h-.22v3h.23Zm-4.8-.5h4.8v-3H32.4Z"/><path class="a" d="M40.62,35.31h5.11v3.26H40.62l0,0V35.28Z"/><path class="a" d="M40.79,38.92l-.5-.49h.24v-3H40.3l.49-.49v.22h5.07V38.7H40.79Zm0-.49H45.6v-3H40.79Z"/><path class="a" d="M40.62,38.57v5.1H37.37v-5.1l0,0h3.33Z"/><path class="a" d="M40.75,43.81H37.24V38.74H37l.49-.5v.23h3v-.22l.5.49h-.24Zm-3.25-.27h3v-4.8h-3Z"/><path class="a" d="M104.55,49.65l-3.62.06,0,0V46.39h3.38l.19,3.29Z"/><path class="a" d="M101.1,50.06l-.48-.47h.21V46.25h3.63l.19,3.27h.21l-.45.49v-.21l-3.3.05Zm0-3.54v3.06l3.29-.06-.18-3Z"/><path class="a" d="M101,53l3.36.25v3.25H101V52.93Z"/><path class="a" d="M104.5,56.6h-3.59V53.08h-.19l.45-.48v.25l3.33.25Zm-3.33-.27h3.06v-3l-3.06-.24Z"/><path class="a" d="M101,52.93l-3.37.26V49.74H101l0,0c0,1.09,0,2.17.08,3.25Z"/><path class="a" d="M97.54,53.33V49.61h3.26v-.22l.47.46-.19,0c0,1,0,1.94.07,2.92l.23,0-.49.52v-.22Zm.26-3.45v3.17l3.07-.24c0-1,0-2-.07-2.93Z"/><path class="a" d="M104.53,49.68h3.2V53h-3.35c.06-1.11.12-2.24.17-3.38Z"/><path class="a" d="M107.86,53.17h-3.62V53c0-1.06.11-2.14.16-3.22h-.19l.2-.21v-.25l.2.19h3.23Zm-3.34-.27h3.08V49.81h-2.92C104.63,50.85,104.57,51.88,104.52,52.9Z"/><rect class="f" width="140" height="140"/></svg>