<svg xmlns="http://www.w3.org/2000/svg" viewBox="0 0 140 140"><defs><style>.a,.c{fill:#83c674;}.b,.d{fill:#1f2836;}.b,.c{fill-rule:evenodd;}.e{fill:#fff;}.f{fill:none;}</style></defs><title>shopping-icon</title><polygon class="a" points="56.24 53.89 56.24 106.91 100.78 106.91 103.83 105.61 105.02 102.23 105.02 53.89 56.24 53.89"/><path class="b" d="M35,40.82h1A8,8,0,0,0,37.67,45l-.69.7a.88.88,0,0,0,0,1.25.9.9,0,0,0,1.27,0l.69-.69A8.22,8.22,0,0,0,43.13,48v1a.91.91,0,0,0,1.81,0V48a8.19,8.19,0,0,0,4.17-1.73l.7.69a.9.9,0,0,0,1.28-1.27L50.4,45a8,8,0,0,0,1.73-4.16h1a.9.9,0,0,0,0-1.8h-1a8,8,0,0,0-1.73-4.16l.69-.7a.9.9,0,0,0-1.28-1.27l-.7.69a8.09,8.09,0,0,0-4.17-1.72v-1a.91.91,0,0,0-1.81,0v1A8.12,8.12,0,0,0,39,33.58l-.69-.69a.9.9,0,0,0-1.27,0,.88.88,0,0,0,0,1.25l.69.7A8,8,0,0,0,35.94,39H35a.9.9,0,0,0,0,1.8Z"/><path class="c" d="M50.31,39a6.23,6.23,0,0,0-1.21-2.88,5.93,5.93,0,0,0-1.28-1.27,6.33,6.33,0,0,0-2.88-1.2,6.8,6.8,0,0,0-.9-.06,6.62,6.62,0,0,0-.91.06,6.32,6.32,0,0,0-2.89,1.2A5.93,5.93,0,0,0,39,36.14,6.22,6.22,0,0,0,37.76,39a6.78,6.78,0,0,0,0,1.8A6.27,6.27,0,0,0,39,43.7a6.41,6.41,0,0,0,4.17,2.47,6.62,6.62,0,0,0,.91.06,6.8,6.8,0,0,0,.9-.06A6.31,6.31,0,0,0,47.82,45,6.47,6.47,0,0,0,49.1,43.7a6.28,6.28,0,0,0,1.21-2.88,6.78,6.78,0,0,0,0-1.8Zm-2.77,1.8a3.82,3.82,0,0,1-.39.93A3.53,3.53,0,0,1,46,42.94l-.13.09a3.72,3.72,0,0,1-.93.38,3.58,3.58,0,0,1-1.81,0,3.64,3.64,0,0,1-.94-.38A3.6,3.6,0,0,1,41,41.89l-.09-.14a4.17,4.17,0,0,1-.39-.93,3.7,3.7,0,0,1,.39-2.73l0,0,.9.9.44.44,0,0a1.45,1.45,0,0,0,.54.32,1.26,1.26,0,0,0,.27,0,.79.79,0,0,0,.63-.22A.81.81,0,0,0,44,39a1.37,1.37,0,0,0-.05-.28,1.47,1.47,0,0,0-.17-.36,1.68,1.68,0,0,0-.18-.21l-.46-.47-.88-.88s0,0,0,0a3.62,3.62,0,0,1,.92-.37,3.66,3.66,0,0,1,2.74.38A3.62,3.62,0,0,1,47.07,38a1,1,0,0,1,.08.14,3.6,3.6,0,0,1,.39.93A3.66,3.66,0,0,1,47.54,40.82Z"/><path class="d" d="M100.78,107.81H80.63V106h20.15a3.35,3.35,0,0,0,3.34-3.34V54.79h-47V66.61h-1.8V53.89a.9.9,0,0,1,.9-.9H105a.9.9,0,0,1,.9.9v48.78A5.15,5.15,0,0,1,100.78,107.81Z"/><path class="d" d="M94.26,64.49H92.45V45.41a3.34,3.34,0,0,0-3.34-3.34h-17a3.34,3.34,0,0,0-3.34,3.34V64.49H67V45.41a5.16,5.16,0,0,1,5.15-5.15h17a5.16,5.16,0,0,1,5.15,5.15Z"/><rect class="d" x="56.24" y="59.35" width="48.78" height="1.8"/><path class="d" d="M70.93,66.61H69.12a1.22,1.22,0,1,0-2.43,0H64.88a3,3,0,0,1,6.05,0Z"/><path class="d" d="M93.35,69.64a3,3,0,1,1,3-3A3,3,0,0,1,93.35,69.64Zm0-4.25a1.22,1.22,0,1,0,1.22,1.22A1.22,1.22,0,0,0,93.35,65.39Z"/><path class="d" d="M98.7,103.57H95.48a.91.91,0,1,1,0-1.81h3.25a1.2,1.2,0,0,0,1.15-1.21v-3.2a.9.9,0,1,1,1.8,0v3.19a3,3,0,0,1-2.92,3Z"/><path class="e" d="M60.48,77.22H39.27v6.36h3.19v21.21a2.12,2.12,0,0,0,2.12,2.12H76.39a2.12,2.12,0,0,0,2.12-2.12V83.58h3.18V77.22Z"/><path class="e" d="M76.39,109.1H44.58a4.32,4.32,0,0,1-4.31-4.31v-19H37.09V75H83.88V85.77H80.7v19A4.32,4.32,0,0,1,76.39,109.1Zm-31.74-4.38H76.32V81.39H79.5v-2h-38v2h3.19Z"/><path class="d" d="M76.39,107.81H44.58a3,3,0,0,1-3-3V84.48H39.27a.9.9,0,0,1-.9-.9V77.22a.9.9,0,0,1,.9-.9H81.69a.9.9,0,0,1,.9.9v6.36a.9.9,0,0,1-.9.9H79.41v20.31A3,3,0,0,1,76.39,107.81ZM40.18,82.68h2.28a.9.9,0,0,1,.9.9v21.21A1.22,1.22,0,0,0,44.58,106H76.39a1.22,1.22,0,0,0,1.22-1.22V83.58a.9.9,0,0,1,.9-.9h2.28V78.12H40.18Z"/><path class="e" d="M76.39,110H44.58a5.22,5.22,0,0,1-5.22-5.21V86.67h-.09a3.1,3.1,0,0,1-3.09-3.09V77.22a3.09,3.09,0,0,1,3.09-3.09H81.69a3.09,3.09,0,0,1,3.09,3.09v6.36a3.09,3.09,0,0,1-3.09,3.09H81.6v18.12A5.22,5.22,0,0,1,76.39,110Zm-30.84-6.18H75.42V83.58a3.09,3.09,0,0,1,3.09-3.09h.09v-.18H42.37v.18h.09a3.09,3.09,0,0,1,3.09,3.09Z"/><path class="e" d="M71.09,69.79H63.53A3.13,3.13,0,0,0,60.48,73a3.12,3.12,0,0,0-3-3.19H49.88s1.06,7.43,10.6,7.43S71.09,69.79,71.09,69.79Z"/><path class="e" d="M60.48,79.41c-9,0-12.31-6.09-12.77-9.31l-.36-2.5H57.48a5.21,5.21,0,0,1,3,1,5.26,5.26,0,0,1,3-1H73.61l-.36,2.5C72.79,73.32,69.53,79.41,60.48,79.41ZM53.17,72c1.09,1.48,3.22,3,7.31,3s6.22-1.57,7.31-3H63.58a.94.94,0,0,0-.91.88V73H58.29v-.16a.93.93,0,0,0-.9-.88Z"/><path class="d" d="M60.48,78.12C50.28,78.12,49,70,49,69.92a.9.9,0,0,1,.21-.72.93.93,0,0,1,.68-.31h7.57a4,4,0,0,1,2.82,1.24l.21.24.22-.24a4,4,0,0,1,2.81-1.24h7.58a.93.93,0,0,1,.68.31.9.9,0,0,1,.21.72C72,70,70.69,78.12,60.48,78.12ZM51.05,70.7c.67,1.87,2.84,5.62,9.43,5.62s8.76-3.75,9.43-5.62H63.55a2.18,2.18,0,0,0-1.55.68,2.22,2.22,0,0,0-.62,1.46.43.43,0,0,1,0,.16.9.9,0,0,1-1.8,0v-.16A2.21,2.21,0,0,0,59,71.38a2.18,2.18,0,0,0-1.55-.68H51.05Z"/><path class="e" d="M60.48,80.31c-12.08,0-13.65-10-13.66-10.08a3.09,3.09,0,0,1,3.06-3.53h7.63a6.23,6.23,0,0,1,3,.84,6.31,6.31,0,0,1,3-.84h7.62a3.1,3.1,0,0,1,3.06,3.53C74.13,70.34,72.55,80.31,60.48,80.31Zm-5-7.42a7.4,7.4,0,0,0,2,.87,3.38,3.38,0,0,1-.1-.72v-.13h0l0,0H55.47Zm8.11,0s0,.1,0,.16a2.83,2.83,0,0,1-.1.71,7.34,7.34,0,0,0,2-.87Zm-4.39,0h0Zm2.58,0Z"/><path class="e" d="M42.46,83.58v21.21a2.12,2.12,0,0,0,2.12,2.12H76.39a2.12,2.12,0,0,0,2.12-2.12V83.58"/><path class="d" d="M76.39,107.81H44.58a3,3,0,0,1-3-3V83.58h1.81v21.21A1.22,1.22,0,0,0,44.58,106H76.39a1.22,1.22,0,0,0,1.22-1.22V83.58h1.8v21.21A3,3,0,0,1,76.39,107.81Z"/><rect class="d" x="63.82" y="83.58" width="1.8" height="23.33"/><path class="e" d="M60.48,77.22V73a3.12,3.12,0,0,0-3-3.19H49.88S50.94,77.22,60.48,77.22Z"/><path class="d" d="M60.48,78.12C50.28,78.12,49,70,49,69.92a.9.9,0,0,1,.21-.72.93.93,0,0,1,.68-.31h7.57a4,4,0,0,1,2.82,1.24A4,4,0,0,1,61.38,73v4.22A.9.9,0,0,1,60.48,78.12ZM51.05,70.7c.64,1.78,2.64,5.27,8.53,5.59V73a2.23,2.23,0,0,0-.61-1.6,2.18,2.18,0,0,0-1.55-.68H51.05Z"/><path class="e" d="M60.48,77.22V73a3.13,3.13,0,0,1,3.05-3.19h7.56S70,77.22,60.48,77.22Z"/><path class="d" d="M60.48,78.12a.9.9,0,0,1-.9-.9V73a4,4,0,0,1,1.12-2.85,4,4,0,0,1,2.81-1.24h7.58a.93.93,0,0,1,.68.31.9.9,0,0,1,.21.72C72,70,70.69,78.12,60.48,78.12ZM63.6,70.7h-.05a2.18,2.18,0,0,0-1.55.68A2.22,2.22,0,0,0,61.38,73v3.33C64.6,76.12,67.05,75,68.65,73A8.27,8.27,0,0,0,69.9,70.7H63.6Z"/><path class="d" d="M74.27,103.57H70a.91.91,0,1,1,0-1.81h3.34V98.43a.9.9,0,1,1,1.8,0v4.24A.9.9,0,0,1,74.27,103.57Z"/><rect class="d" x="55.34" y="83.58" width="1.8" height="23.33"/><rect class="e" x="39.28" y="77.22" width="42.42" height="6.36"/><path class="d" d="M81.69,84.48H39.27a.9.9,0,0,1-.9-.9V77.22a.9.9,0,0,1,.9-.9H81.69a.9.9,0,0,1,.9.9v6.36A.9.9,0,0,1,81.69,84.48Zm-41.51-1.8H80.79V78.12H40.18Z"/><rect class="d" x="53.22" y="77.22" width="1.8" height="6.36"/><rect class="d" x="65.94" y="77.22" width="1.8" height="6.36"/><rect class="f" width="140" height="140"/></svg>