<svg xmlns="http://www.w3.org/2000/svg" viewBox="0 0 140 140"><defs><style>.a{fill:#fff;}.b,.d{fill:#1f2836;}.b,.c{fill-rule:evenodd;}.c,.e{fill:#83c674;}.f{fill:none;}</style></defs><title>tech-icon</title><rect class="a" x="36" y="44" width="72" height="51"/><path class="b" d="M62.45,67.31h1.06a8.56,8.56,0,0,0,1.87,4.5l-.75.74a1,1,0,0,0,0,1.35,1,1,0,0,0,1.37,0l.74-.75A8.78,8.78,0,0,0,71.26,75v1a1,1,0,0,0,1.95,0V75a8.74,8.74,0,0,0,4.5-1.86l.75.75a1,1,0,0,0,1.36,0,1,1,0,0,0,0-1.35l-.75-.74A8.56,8.56,0,0,0,81,67.31H82a1,1,0,0,0,.94-1,1,1,0,0,0-.94-1H81a8.53,8.53,0,0,0-1.87-4.48l.75-.75a1,1,0,0,0-1.38-1.37l-.75.74a8.74,8.74,0,0,0-4.5-1.86V56.59a1,1,0,0,0-1.95,0v1.06a8.78,8.78,0,0,0-4.51,1.86L66,58.77a1,1,0,0,0-1.38,1.37l.75.75a8.53,8.53,0,0,0-1.87,4.48H62.45a1,1,0,0,0-1,1A1,1,0,0,0,62.45,67.31Z"/><path class="c" d="M79,65.37a6.81,6.81,0,0,0-1.3-3.1,6.4,6.4,0,0,0-1.38-1.37,6.79,6.79,0,0,0-3.11-1.29,6.83,6.83,0,0,0-1.95,0,6.88,6.88,0,0,0-4.5,2.66,6.91,6.91,0,0,0-1.29,3.1,7.93,7.93,0,0,0-.07,1,7.77,7.77,0,0,0,.07,1,6.77,6.77,0,0,0,2.67,4.47,6.72,6.72,0,0,0,3.12,1.29,6.83,6.83,0,0,0,1.95,0,6.78,6.78,0,0,0,3.11-1.28,6.69,6.69,0,0,0,1.38-1.38,6.81,6.81,0,0,0,1.3-3.1,7.77,7.77,0,0,0,.06-1A7.93,7.93,0,0,0,79,65.37Zm-3,1.95a3.93,3.93,0,0,1-1.66,2.29l-.14.09a4.3,4.3,0,0,1-1,.41,3.9,3.9,0,0,1-1.95,0,4.2,4.2,0,0,1-1-.41A4,4,0,0,1,69,68.47l-.09-.15a3.94,3.94,0,0,1-.42-1,3.79,3.79,0,0,1,0-1.95,3.91,3.91,0,0,1,.41-1l0,0,1,1,.48.48s0,0,0,0a1.42,1.42,0,0,0,.58.33,1,1,0,0,0,.29,0,.85.85,0,0,0,.68-.24.91.91,0,0,0,.25-.66,1.59,1.59,0,0,0-.06-.3,1.2,1.2,0,0,0-.18-.38,2,2,0,0,0-.19-.24l-.5-.49-1-1,0,0a3.81,3.81,0,0,1,1-.4,3.9,3.9,0,0,1,1.95,0,4,4,0,0,1,2.29,1.65.42.42,0,0,1,.09.14,3.94,3.94,0,0,1,.42,1A4,4,0,0,1,76,67.32Z"/><path class="d" d="M110.49,87.19h-.87V45a2.39,2.39,0,0,0-2.4-2.39H36A2.39,2.39,0,0,0,33.6,45V87.19h-.87a4.79,4.79,0,1,0,0,9.57h77.76a4.79,4.79,0,1,0,0-9.57ZM86.77,93.05a.69.69,0,0,1-.69.69H57.14a.69.69,0,0,1-.69-.69V89.41a.68.68,0,0,1,.69-.68H86.08a.68.68,0,0,1,.69.68Zm19.43-5.67H37V46H106.2Z"/><rect class="e" x="26.23" y="73.23" width="19.43" height="29.78" rx="3" ry="3"/><path class="d" d="M42.8,72.18H29.08a4.36,4.36,0,0,0-4.36,4.36V99.73a4.36,4.36,0,0,0,4.36,4.36H42.8a4.36,4.36,0,0,0,4.36-4.36V76.54A4.36,4.36,0,0,0,42.8,72.18ZM28.89,101a1,1,0,0,1-1.05-.83V98.52a1,1,0,0,1,1.05-.83H34a3,3,0,0,0-.73,2,3.05,3.05,0,0,0,.32,1.35Zm9.57-.51a2.31,2.31,0,0,1-.5.78l-.15.11-.15.14-.2.12-.16.08-.21.1H37a2.36,2.36,0,0,1-1.53,0h0l0,0-.15-.06-.24-.13-.14-.08-.28-.24,0,0h0l-.29-.35,0,0-.19-.35,0-.05a2.49,2.49,0,0,1-.17-.87,2.68,2.68,0,0,1,.13-.75l.06-.16.07-.15a2.21,2.21,0,0,1,1.18-1.12l0,0a2.91,2.91,0,0,1,.39-.12l.06,0a3.42,3.42,0,0,1,.45,0h.06l.36,0,.16,0,.25.07.16.07h0v0a2.42,2.42,0,0,1,1.09,1.08v0l0,0,.07.2.06.18,0,.23,0,.21,0,.17A2.23,2.23,0,0,1,38.46,100.49Zm5.58-.32a1,1,0,0,1-1,.83H38.93a3.05,3.05,0,0,0,.32-1.35,3,3,0,0,0-.73-2H43a1,1,0,0,1,1,.83ZM44.48,92a3.16,3.16,0,0,1-3.32,3H30.72a3.16,3.16,0,0,1-3.32-3V77.64a3.15,3.15,0,0,1,3.32-3H41.16a3.15,3.15,0,0,1,3.32,3Z"/><path class="d" d="M101.44,110H76.13a.41.41,0,0,1-.41-.42.41.41,0,0,1,.41-.41h25.31a.41.41,0,0,1,.42.41A.42.42,0,0,1,101.44,110Z"/><path class="d" d="M110.61,110h-5.28a.42.42,0,0,1-.42-.42.41.41,0,0,1,.42-.41h5.28a.41.41,0,0,1,.41.41A.41.41,0,0,1,110.61,110Z"/><path class="d" d="M55.23,30.83H29.92a.41.41,0,0,1-.42-.41.42.42,0,0,1,.42-.42H55.23a.42.42,0,0,1,.42.42A.41.41,0,0,1,55.23,30.83Z"/><path class="d" d="M64.4,30.83H59.12a.41.41,0,0,1-.42-.41.42.42,0,0,1,.42-.42H64.4a.41.41,0,0,1,.41.42A.41.41,0,0,1,64.4,30.83Z"/><rect class="f" width="140" height="140"/></svg>